<?xml version="1.0" encoding="UTF-8"?>
<svg xmlns="http://www.w3.org/2000/svg" xmlns:xlink="http://www.w3.org/1999/xlink" viewBox="0 0 525 525">
  <defs>
    <style>
      .cls-1 {
        fill: #d88fad;
      }

      .cls-2 {
        fill: url(#radial-gradient-7);
      }

      .cls-3 {
        fill: url(#radial-gradient-6);
      }

      .cls-4 {
        fill: url(#radial-gradient-5);
      }

      .cls-5 {
        fill: url(#radial-gradient-4);
      }

      .cls-6 {
        fill: url(#radial-gradient-3);
      }

      .cls-7 {
        fill: url(#radial-gradient-2);
      }

      .cls-8 {
        fill: url(#linear-gradient-8);
      }

      .cls-9 {
        fill: url(#linear-gradient-7);
      }

      .cls-10 {
        fill: url(#linear-gradient-5);
      }

      .cls-11 {
        fill: url(#linear-gradient-6);
      }

      .cls-12 {
        fill: url(#linear-gradient-9);
      }

      .cls-13 {
        fill: url(#linear-gradient-4);
      }

      .cls-14 {
        fill: url(#linear-gradient-3);
      }

      .cls-15 {
        fill: url(#linear-gradient-2);
      }

      .cls-16, .cls-17 {
        stroke: #36373c;
      }

      .cls-16, .cls-17, .cls-18 {
        stroke-linecap: round;
      }

      .cls-16, .cls-17, .cls-18, .cls-19 {
        fill: none;
        stroke-miterlimit: 10;
      }

      .cls-16, .cls-18, .cls-19 {
        stroke-width: 2px;
      }

      .cls-20 {
        fill: url(#radial-gradient);
      }

      .cls-21 {
        fill: url(#linear-gradient);
      }

      .cls-22 {
        opacity: .4;
      }

      .cls-22, .cls-23 {
        fill: #fff;
      }

      .cls-24 {
        fill: #36373c;
      }

      .cls-25 {
        fill: #c4d6de;
        opacity: .5;
      }

      .cls-26 {
        fill: #ff7a00;
      }

      .cls-27 {
        fill: url(#linear-gradient-10);
      }

      .cls-28 {
        fill: url(#linear-gradient-11);
      }

      .cls-29 {
        fill: url(#linear-gradient-12);
      }

      .cls-30 {
        fill: url(#linear-gradient-13);
      }

      .cls-31 {
        fill: url(#linear-gradient-14);
      }

      .cls-32 {
        fill: url(#linear-gradient-15);
      }

      .cls-33 {
        fill: url(#linear-gradient-16);
      }

      .cls-34 {
        fill: url(#linear-gradient-17);
      }

      .cls-18, .cls-19 {
        stroke: #fff;
      }

      .cls-35 {
        fill: #ecb3c6;
      }

      .cls-36 {
        fill: #fbf0f4;
      }

    #main{
        transform-origin: 50% 50% !important;
		    animation: bounce 12s  infinite ease-in-out alternate;
        }
		
		@keyframes bounce { 
        0% {
        transform: 
        rotate(0deg)
        translate(0px, 0px);
        }
        25% {
        transform: 
        rotate(3deg)
        translate(0px, -10px);
        } 
        75% {
        transform: 
        rotate(-3deg)
        translate(0px, 10px);
        }
        100% {
        transform: 
        rotate(0deg)
        translate(0px, 0px);
        }
        } 

    #blink{
        transform-origin: 50% 50% !important;
		    animation: blink 1s  infinite linear;
        } 

    @keyframes blink { 
       	0% {opacity:1;}
        50% {opacity:0;}
        100% {opacity:1;}
	      } 

    #b1,#b3,#b5, #tail{
        transform-origin: 50% 70% !important;
		    animation: rotate 6s  infinite ease-in-out alternate;
        }
		
		@keyframes rotate { 
        0% {
        transform: 
        rotate(0deg);
        }
        50% {
        transform: 
        rotate(5deg);
        }
        100% {
        transform: 
        rotate(0deg);
        }
        } 
      
    #tail, #decor{
        transform-origin: 50% 80% !important;
		    animation: rotate  6s  infinite linear reverse;
        } 

    </style>
    <radialGradient id="radial-gradient" cx="-62.73" cy="692.67" fx="-62.73" fy="692.67" r="294.2" gradientTransform="translate(317.9 -341.88) scale(.88 .87)" gradientUnits="userSpaceOnUse">
      <stop offset="0" stop-color="#c4d6de"/>
      <stop offset="1" stop-color="#c4d6de" stop-opacity="0"/>
    </radialGradient>
    <radialGradient id="radial-gradient-2" cx="394.69" cy="226.67" fx="394.69" fy="226.67" r="58.64" gradientTransform="translate(0 .5)" gradientUnits="userSpaceOnUse">
      <stop offset="0" stop-color="#fff900"/>
      <stop offset="1" stop-color="#ffab00"/>
    </radialGradient>
    <radialGradient id="radial-gradient-3" cx="386.78" cy="90.68" fx="386.78" fy="90.68" r="41.07" xlink:href="#radial-gradient-2"/>
    <radialGradient id="radial-gradient-4" cx="265.99" cy="137.89" fx="265.99" fy="137.89" r="60.19" xlink:href="#radial-gradient-2"/>
    <radialGradient id="radial-gradient-5" cx="151.77" cy="78.18" fx="151.77" fy="78.18" r="42.25" xlink:href="#radial-gradient-2"/>
    <radialGradient id="radial-gradient-6" cx="113.66" cy="174.61" fx="113.66" fy="174.61" r="55.14" xlink:href="#radial-gradient-2"/>
    <linearGradient id="linear-gradient" x1="223.02" y1="432.98" x2="223.02" y2="447.1" gradientUnits="userSpaceOnUse">
      <stop offset="0" stop-color="#4d4f59"/>
      <stop offset="1" stop-color="#7b929a"/>
    </linearGradient>
    <linearGradient id="linear-gradient-2" x1="28.73" y1="511.91" x2="57.47" y2="529.71" gradientTransform="translate(238.79 -124.39) rotate(-4.58)" gradientUnits="userSpaceOnUse">
      <stop offset="0" stop-color="#c4d6de"/>
      <stop offset="1" stop-color="#fff"/>
    </linearGradient>
    <linearGradient id="linear-gradient-3" x1="237.37" y1="301.73" x2="256.1" y2="313.92" gradientUnits="userSpaceOnUse">
      <stop offset="0" stop-color="#7b929a"/>
      <stop offset="1" stop-color="#4d4f59"/>
    </linearGradient>
    <linearGradient id="linear-gradient-4" x1="245.69" y1="316.46" x2="246.13" y2="351.06" gradientUnits="userSpaceOnUse">
      <stop offset="0" stop-color="#fff"/>
      <stop offset="1" stop-color="#e1eaee"/>
    </linearGradient>
    <linearGradient id="linear-gradient-5" x1="201.54" y1="304.5" x2="166.99" y2="301.54" xlink:href="#linear-gradient-3"/>
    <linearGradient id="linear-gradient-6" x1="274.08" y1="259.36" x2="281.06" y2="275.16" xlink:href="#linear-gradient-3"/>
    <linearGradient id="linear-gradient-7" x1="284.61" y1="332.56" x2="295.85" y2="314.63" gradientTransform="matrix(1,0,0,1,0,0)" xlink:href="#linear-gradient-2"/>
    <linearGradient id="linear-gradient-8" x1="294.97" y1="298.26" x2="354.1" y2="298.26" xlink:href="#linear-gradient-3"/>
    <radialGradient id="radial-gradient-7" cx="354.06" cy="73.51" fx="354.06" fy="73.51" r="123.54" gradientTransform="translate(-41.92 138.32) rotate(5.85) scale(.97 .99) skewX(5.96)" gradientUnits="userSpaceOnUse">
      <stop offset="0" stop-color="#4d4f59"/>
      <stop offset="1" stop-color="#4d4f59" stop-opacity="0"/>
    </radialGradient>
    <linearGradient id="linear-gradient-9" x1="168.13" y1="373.26" x2="187.64" y2="370.09" gradientTransform="matrix(1,0,0,1,0,0)" xlink:href="#linear-gradient-2"/>
    <linearGradient id="linear-gradient-10" x1="170.91" y1="400.72" x2="244.51" y2="400.72" xlink:href="#linear-gradient-3"/>
    <linearGradient id="linear-gradient-11" x1="272.13" y1="362.35" x2="306.04" y2="362.35" xlink:href="#linear-gradient-3"/>
    <linearGradient id="linear-gradient-12" x1="783.4" y1="-321.8" x2="821.21" y2="-312.41" gradientTransform="translate(-544.45 481.55) rotate(8.59) scale(1 1.1)" gradientUnits="userSpaceOnUse">
      <stop offset="0" stop-color="#fff900"/>
      <stop offset="1" stop-color="#ffab00"/>
    </linearGradient>
    <linearGradient id="linear-gradient-13" x1="340.85" y1="-20.69" x2="343.15" y2="41.23" gradientTransform="translate(-43.87 290.49) rotate(-.84) scale(1 1.1) skewX(-1.77)" xlink:href="#linear-gradient-12"/>
    <linearGradient id="linear-gradient-14" x1="354.46" y1="-21.19" x2="356.76" y2="40.73" gradientTransform="translate(-43.87 290.49) rotate(-.84) scale(1 1.1) skewX(-1.77)" xlink:href="#linear-gradient-12"/>
    <linearGradient id="linear-gradient-15" x1="351.24" y1="-21.07" x2="353.54" y2="40.85" gradientTransform="translate(228.93 -80.01) rotate(80.4) scale(1 1.1) skewX(-1.77)" xlink:href="#linear-gradient-12"/>
    <linearGradient id="linear-gradient-16" x1="333.01" y1="-20.4" x2="335.31" y2="41.52" gradientTransform="translate(222.24 -54.66) rotate(80.4) scale(1 1.1) skewX(-1.77)" xlink:href="#linear-gradient-12"/>
    <linearGradient id="linear-gradient-17" x1="353.91" y1="-21.17" x2="356.21" y2="40.75" gradientTransform="translate(215.51 -95.57) rotate(80.4) scale(1 1.1) skewX(-1.77)" xlink:href="#linear-gradient-12"/>
  </defs>
  <g id="bg">
    <ellipse class="cls-20" cx="262.5" cy="262.5" rx="259.81" ry="256.69"/>
  </g>
  <g id="shadow">
    <ellipse class="cls-25" cx="260.36" cy="516.36" rx="82.04" ry="8.64"/>
  </g>
  <g id="decor">
    <ellipse class="cls-23" cx="500.09" cy="217.15" rx="7.6" ry="7.59"/>
    <ellipse class="cls-23" cx="25.16" cy="218.69" rx="7.6" ry="7.59"/>
    <ellipse class="cls-23" cx="224.37" cy="59.3" rx="7.6" ry="7.59"/>
    <ellipse class="cls-23" cx="252.54" cy="44.83" rx="3.8" ry="3.8"/>
    <ellipse class="cls-23" cx="321.82" cy="209.56" rx="3.8" ry="3.8"/>
    <ellipse class="cls-23" cx="222.36" cy="231.51" rx="3.8" ry="3.8"/>
    <ellipse class="cls-23" cx="434.54" cy="349.83" rx="3.8" ry="3.8"/>
    <ellipse class="cls-23" cx="169.95" cy="443.19" rx="3.8" ry="3.8"/>
    <ellipse class="cls-23" cx="85.74" cy="346.04" rx="3.8" ry="3.8"/>
    <ellipse class="cls-23" cx="365.19" cy="429.12" rx="3.8" ry="3.8"/>
    <path class="cls-19" d="M451.41,304.21c2.23,10.57,22.26,26.01,26.91,12.14,3.55-10.57-7.66-30.14-16.07-26.71-3.35,1.37-2.6,6.49-1.08,9.76,12.28,25.26,44.5,5.89,12.01-17.27"/>
    <path class="cls-19" d="M65.56,283.19c-2.71,10.25-.64,23.65,9.87,20.45s20.16-23.7,12.48-28.55c-3.06-1.93-6.8,1.65-8.59,4.78-10.57,19.3,8.31,32.67,17.02,18.38"/>
    <path class="cls-19" d="M289.13,73.89c10.17,3.07,23.65,1.48,20.83-9.12-2.87-10.77-23.02-20.95-28.15-13.47-2.04,2.98,1.41,6.84,4.49,8.74,18.95,11.23,33-7.13,19.01-16.32"/>
  </g>
  <g id="main">
    <g id="b5">
      <g>
        <line class="cls-19" x1="387.98" y1="277.39" x2="342.41" y2="405.89"/>
        <g>
          <path class="cls-26" d="M383.18,300.23l-5.84-2.1c-3.07-1.11-4.66-4.48-3.55-7.55h0c1.11-3.06,4.49-4.65,7.56-3.55l5.84,2.1c3.07,1.11,4.66,4.48,3.55,7.55h0c-1.11,3.06-4.49,4.65-7.56,3.55Z"/>
          <path class="cls-26" d="M460.85,201.88l-22.37,1.87c-5.07-5.57-11.53-10.02-19.12-12.75-7.74-2.79-15.74-3.46-23.34-2.31l-16.39-16.06c-1.71-1.68-5.47-.59-6.01,1.75l-7.17,30.91c-3.49,4.16-6.31,9-8.27,14.4-8.96,24.79-.9,65.42,23.94,74.36,24.83,8.94,57.03-17.19,65.99-41.98,2.18-6.03,3.06-12.2,2.8-18.23l13.46-26.78c1.08-2.14-1.12-5.38-3.51-5.18Z"/>
          <path class="cls-7" d="M460.85,201.88l-22.37,1.87c-5.07-5.57-11.53-10.02-19.12-12.75-7.74-2.79-15.74-3.46-23.34-2.31l-16.39-16.06c-1.71-1.68-5.47-.59-6.01,1.75l-7.17,30.91c-3.49,4.16-6.31,9-8.27,14.4-8.96,24.79-.9,65.42,23.94,74.36,24.83,8.94,51.18-19.59,60.14-44.38,2.18-6.03,5.03-12.14,4.77-18.16l17.33-24.45c1.08-2.14-1.12-5.38-3.51-5.18Z"/>
          <ellipse class="cls-22" cx="385.21" cy="211.95" rx="15.79" ry="7.28" transform="translate(-50.54 270.52) rotate(-36.48)"/>
          <ellipse class="cls-22" cx="368.88" cy="238.05" rx="3.64" ry="7.88" transform="translate(-17.89 30.32) rotate(-4.6)"/>
        </g>
        <path class="cls-18" d="M373.59,291.25s8.7,5.98,17.15,5.43"/>
      </g>
    </g>
    <g id="b4">
      <g>
        <path class="cls-19" d="M375.71,143.7c-16.2,40.04-59.53,162.16-60.17,172.96"/>
        <rect class="cls-26" x="372.36" y="138.95" width="13.2" height="8.64" rx="4.32" ry="4.32" transform="translate(52.99 -97.32) rotate(15.72)"/>
        <path class="cls-26" d="M431.56,72.15l-16.24,2.53c-4-3.8-8.95-6.72-14.63-8.32-5.8-1.63-11.68-1.71-17.17-.47l-12.81-10.88c-1.34-1.14-4.03-.14-4.3,1.59l-3.62,22.95c-2.33,3.22-4.14,6.9-5.28,10.95-5.25,18.57,2.77,47.83,21.38,53.07,18.61,5.24,40.76-15.53,46.01-34.1,1.28-4.52,1.59-9.07,1.09-13.46l8.43-20.27c.67-1.62-1.1-3.87-2.83-3.6Z"/>
        <path class="cls-6" d="M431.56,72.15l-16.24,2.53c-4-3.8-8.95-6.72-14.63-8.32-5.8-1.63-11.68-1.71-17.17-.47l-12.81-10.88c-1.34-1.14-4.03-.14-4.3,1.59l-3.62,22.95c-2.33,3.22-4.14,6.9-5.28,10.95-5.25,18.57,1.84,42.75,20.45,47.98,18.61,5.24,41.69-10.44,46.93-29.02,1.28-4.52,1.59-9.07,1.09-13.46l8.43-20.27c.67-1.62-1.1-3.87-2.83-3.6Z"/>
        <ellipse class="cls-22" cx="374.79" cy="80.13" rx="8.67" ry="4" transform="translate(51.79 286.43) rotate(-44.63)"/>
        <path class="cls-18" d="M372.37,142.11s6.59,4,12.54,4.39"/>
      </g>
    </g>
    <g id="b3">
      <line class="cls-19" x1="264.95" y1="210.14" x2="260.36" y2="349.83"/>
      <g>
        <path class="cls-26" d="M263.87,223.86l-2.87-.45c-3.49-.52-4.27-4.27-3.76-7.76l.03-.2c.52-3.49,3.77-5.89,7.26-5.38l.42.06c3.49.52,5.91,3.76,5.39,7.25l-.03.2c-.52,3.49-2.95,6.79-6.44,6.28Z"/>
        <path class="cls-26" d="M328.46,100.58l-23.69,6.88c-6.68-4.9-14.61-8.29-23.38-9.59-8.95-1.32-17.71-.31-25.66,2.58l-21.16-13.75c-2.21-1.44-6.02.56-6.1,3.19l-.99,34.87c-2.85,5.24-4.84,11.07-5.77,17.31-4.25,28.65,13.3,70.69,42.01,74.93,28.71,4.24,57.71-30.91,61.96-59.57,1.03-6.97.63-13.81-.96-20.25l8.66-31.78c.69-2.54-2.37-5.55-4.91-4.82Z"/>
        <path class="cls-5" d="M328.46,100.58l-23.69,6.88c-6.68-4.9-14.61-8.29-23.38-9.59-8.95-1.32-17.71-.31-25.66,2.58l-21.16-13.75c-2.58-1.68-6.01.11-6.1,3.19l-.99,34.87c-2.85,5.24-4.84,11.07-5.77,17.31-2.66,17.93,3.21,41.09,15.01,56.96,11.12,14.96,31.96,18.99,48.04,9.53,18.65-10.96,34.02-31.13,37.06-51.59,1.03-6.97,1.6-14.42,0-20.86l11.55-30.72c.81-2.97-1.95-5.68-4.91-4.82Z"/>
      </g>
      <path class="cls-18" d="M256.72,216.96s5.23,3.81,13.49,1.93"/>
      <ellipse class="cls-22" cx="240.25" cy="143.25" rx="15.77" ry="7.29" transform="translate(66.43 362.39) rotate(-82.38)"/>
      <ellipse class="cls-22" cx="240.25" cy="178.24" rx="3.64" ry="7.89" transform="translate(-43.9 84.7) rotate(-18.35)"/>
    </g>
    <g id="b2">
      <line class="cls-19" x1="174.47" y1="119.85" x2="230.67" y2="332.04"/>
      <path class="cls-26" d="M183.8,133l-4.23,1.66c-2.22.87-4.74-.22-5.61-2.44h0c-.88-2.22.22-4.73,2.44-5.6l4.23-1.66c2.22-.87,4.74.22,5.61,2.44h0c.88,2.22-.22,4.73-2.44,5.6Z"/>
      <path class="cls-26" d="M196.16,75.18c-1.72-4.37-4.23-8.19-7.3-11.37l-5.58-21.22c-.45-1.7-3.22-2.42-4.44-1.15l-11.39,11.83c-5.49-.61-11.2.06-16.69,2.22-5.61,2.21-10.33,5.7-13.95,10l-16.8-.92c-1.76-.1-3.29,2.32-2.46,3.86l11.04,20.46c.1,3.97.89,8,2.43,11.91,7.09,17.95,31.21,36.4,49.2,29.33,17.99-7.07,23.03-36.99,15.94-54.94Z"/>
      <path class="cls-4" d="M196.16,75.18c-1.72-4.37-4.23-8.19-7.3-11.37l-5.58-21.22c-.45-1.7-3.22-2.42-4.44-1.15l-11.39,11.83c-5.49-.61-11.2.06-16.69,2.22-5.61,2.21-10.33,5.7-13.95,10l-16.8-.92c-1.76-.1-3.29,2.32-2.46,3.86l11.04,20.46c.1,3.97.89,8,2.43,11.91,7.09,17.95,29.63,32.36,47.62,25.28,17.99-7.07,24.61-32.94,17.53-50.9Z"/>
      <ellipse class="cls-22" cx="138.91" cy="83.35" rx="8.66" ry="4" transform="translate(37.89 209.99) rotate(-82.38)"/>
      <ellipse class="cls-22" cx="141.86" cy="99.78" rx="2.32" ry="5.02" transform="translate(-28.39 66.68) rotate(-24.12)"/>
      <path class="cls-18" d="M174.47,132.89s7.56-1.55,12.18-5.3"/>
    </g>
    <g id="b1">
      <line class="cls-19" x1="131.11" y1="237.12" x2="186.65" y2="384.49"/>
      <path class="cls-26" d="M143.59,250.72l-5.28,3.26c-2.77,1.72-6.42.86-8.13-1.91h0c-1.72-2.77-.86-6.4,1.91-8.12l5.28-3.26c2.77-1.72,6.42-.86,8.13,1.91h0c1.72,2.77.86,6.4-1.91,8.12Z"/>
      <path class="cls-26" d="M150.63,175.85c-2.56-5.88-6.16-10.97-10.49-15.18l-8.61-28.7c-.69-2.3-4.51-3.15-6.11-1.37l-14.99,16.68c-7.52-.58-15.28.6-22.67,3.81-7.55,3.27-13.83,8.26-18.57,14.3l-22.96-.47c-2.4-.05-4.38,3.32-3.17,5.39l16.02,27.41c.33,5.42,1.59,10.87,3.88,16.14,10.51,24.17,44.3,48.22,68.52,37.73,24.22-10.49,29.69-51.55,19.18-75.72Z"/>
      <path class="cls-3" d="M150.63,175.85c-2.56-5.88-6.16-10.97-10.49-15.18l-8.61-28.7c-.69-2.3-4.51-3.15-6.11-1.37l-14.99,16.68c-7.52-.58-15.28.6-22.67,3.81-7.55,3.27-13.83,8.26-18.57,14.3l-22.96-.47c-2.4-.05-4.38,3.32-3.17,5.39l18.19,25.49c.33,5.42,2.23,11.24,5.02,16.26,12.84,23.12,40.65,35.56,64.87,25.07,24.22-10.49,30.03-37.1,19.52-61.27Z"/>
      <path class="cls-18" d="M131.11,252.64s8.58-2.44,14.38-10.04"/>
      <ellipse class="cls-22" cx="110.64" cy="164.46" rx="5.17" ry="11.23" transform="translate(-57.9 268.76) rotate(-87.82)"/>
      <ellipse class="cls-22" cx="132.52" cy="172.91" rx="3.07" ry="6.65" transform="translate(-84.73 156.72) rotate(-48.27)"/>
    </g>
    <g id="laptop">
      <path class="cls-24" d="M209.07,447.55l-86.61-64.27c-2.14-1.59,1-9.5,3.67-9.39l83.72,8.05,112.1,72.2-2.73,4.59-95.99-6.01c-5.12-.32-10.04-2.12-14.16-5.17Z"/>
      <path class="cls-21" d="M211.8,442.96l-86.61-64.27c-2.14-1.59-.94-4.99,1.73-4.88l85.66,3.54,109.37,76.79-95.99-6.01c-5.12-.32-10.04-2.12-14.16-5.17Z"/>
      <polygon class="cls-24" points="267.47 426.42 258.26 425.83 245.12 416.99 254.16 417.42 267.47 426.42"/>
      <polygon class="cls-24" points="294.72 444.97 284.32 444.13 272.25 435.27 281.55 436.07 294.72 444.97"/>
      <polygon class="cls-24" points="280.73 435.45 271.25 434.67 258.95 426.4 268.27 427.03 280.73 435.45"/>
      <polygon class="cls-24" points="257.1 426.08 248.44 425.52 236 416.92 244.52 417.32 257.1 426.08"/>
      <polygon class="cls-24" points="282.78 444.07 273.04 443.28 261.65 434.69 270.38 435.44 282.78 444.07"/>
      <polygon class="cls-24" points="269.61 434.85 260.72 434.1 249.1 426.07 257.86 426.67 269.61 434.85"/>
      <polygon class="cls-24" points="246.87 425.51 238.68 424.96 226.62 416.47 234.69 416.87 246.87 425.51"/>
      <polygon class="cls-24" points="271.65 443.19 262.49 442.44 251.47 433.99 259.7 434.72 271.65 443.19"/>
      <polygon class="cls-24" points="258.95 434.13 250.56 433.42 239.32 425.5 247.6 426.09 258.95 434.13"/>
      <polygon class="cls-24" points="236.87 424.85 229.1 424.31 217.17 415.89 224.83 416.28 236.87 424.85"/>
      <polygon class="cls-24" points="261.32 442.35 252.64 441.63 241.73 433.26 249.54 433.97 261.32 442.35"/>
      <polygon class="cls-24" points="248.8 433.4 240.84 432.7 229.73 424.85 237.6 425.42 248.8 433.4"/>
      <polygon class="cls-24" points="227.69 424.31 220.32 423.78 208.71 415.45 215.99 415.84 227.69 424.31"/>
      <polygon class="cls-24" points="251.4 441.55 243.2 440.85 232.59 432.61 240 433.3 251.4 441.55"/>
      <polygon class="cls-24" points="239.27 432.73 231.73 432.06 220.94 424.32 228.4 424.87 239.27 432.73"/>
      <path class="cls-24" d="M321.95,454.14l-109.37-76.79,61.44-65.72c3.57-3.69,9.21-4.45,13.63-1.83l92.77,55.04c5.88,3.49,7.21,11.41,2.8,16.63l-61.28,72.68Z"/>
      <path class="cls-15" d="M216.77,376.92l59.28-63.4c1.38-1.43,3.27-2.32,5.29-2.48,1.72-.14,3.42.26,4.91,1.14l92.77,55.04c2.1,1.25,3.54,3.34,3.95,5.75.41,2.41-.27,4.86-1.84,6.72l-59.65,70.74-104.7-73.51Z"/>
      <path class="cls-24" d="M284.67,383.24c-.52-.36-.91-.75-1.18-1.17-.27-.42-.43-.85-.5-1.29-.07-.44-.06-.86,0-1.27l1.43-.07c-.01.23-.02.5,0,.8,0,.3.09.61.25.92.15.31.44.61.85.9.56.39,1.14.55,1.73.48.59-.07,1.13-.45,1.63-1.14l1.21-1.69-.11-.07c-.2.11-.44.22-.75.34-.3.12-.65.17-1.04.15-.39-.02-.81-.19-1.26-.5-.56-.39-.95-.9-1.17-1.54-.22-.63-.24-1.35-.06-2.15.18-.8.59-1.65,1.22-2.54s1.3-1.56,2.03-2.03,1.44-.73,2.15-.76c.71-.04,1.35.15,1.94.57.45.32.75.67.89,1.04.14.37.2.73.18,1.07-.02.34-.05.61-.08.82l.11.08.98-1.37,1.1.78-6.26,8.68c-.52.72-1.08,1.21-1.68,1.48-.6.27-1.21.35-1.82.25-.61-.1-1.21-.35-1.77-.75ZM287.98,378.55c.43.3.87.43,1.33.4.46-.03.92-.21,1.39-.55.47-.34.92-.81,1.37-1.43s.74-1.18.92-1.75c.18-.56.22-1.08.12-1.55s-.37-.86-.8-1.16-.92-.44-1.41-.37c-.5.07-.99.28-1.47.64-.48.36-.92.82-1.33,1.39s-.71,1.15-.88,1.71c-.17.55-.19,1.06-.07,1.52.12.46.4.84.84,1.15Z"/>
      <path class="cls-24" d="M296.83,379.17l-3.65,5.03-1.12-.78,8.16-11.27,1.12.8-3.54,4.88-.19-.14c.78-.63,1.48-.97,2.11-1.03.63-.05,1.21.11,1.73.48.47.33.79.74.97,1.22.18.48.2,1.03.05,1.64-.15.61-.48,1.26-1,1.97l-3.87,5.29-1.11-.78,3.79-5.19c.47-.65.7-1.25.69-1.81-.01-.56-.26-1.02-.74-1.36-.33-.23-.69-.36-1.08-.37s-.79.1-1.19.33-.77.59-1.12,1.07Z"/>
      <path class="cls-24" d="M308.83,382.56l-.85,1.15-4.03-2.85.85-1.16,4.03,2.86ZM300.03,388.97l6.94-9.44c.36-.49.75-.83,1.18-1.02.43-.19.85-.27,1.27-.22s.79.19,1.12.42c.26.19.46.37.59.54.13.17.22.31.27.42l-1.16.94c-.04-.07-.09-.15-.16-.24s-.18-.2-.34-.31c-.34-.24-.66-.31-.97-.21-.31.1-.62.36-.92.76l-6.73,9.12-1.1-.77Z"/>
      <path class="cls-24" d="M312.52,385.18l-.85,1.14-3.51-2.48.85-1.15,3.51,2.49ZM311.51,381.43l1.09.78-6.02,8.1c-.27.37-.41.68-.41.93,0,.25.14.48.43.68.07.05.16.1.28.15.12.06.23.1.34.15l-.6,1.27c-.15-.03-.3-.08-.46-.16s-.31-.16-.45-.26c-.58-.41-.9-.91-.95-1.51-.05-.6.17-1.24.67-1.91l6.1-8.22Z"/>
      <path class="cls-24" d="M312.52,390.23l-3.67,4.89-1.08-.75,8.2-10.97,1.08.78-3.56,4.75-.19-.13c.77-.62,1.47-.95,2.09-1,.62-.05,1.18.1,1.69.46.45.32.76.72.93,1.19.17.47.18,1,.02,1.59-.16.59-.49,1.23-1.02,1.92l-3.89,5.15-1.08-.75,3.81-5.05c.47-.63.71-1.22.71-1.76,0-.55-.23-.99-.7-1.32-.32-.23-.67-.34-1.06-.35s-.77.1-1.17.32-.77.57-1.12,1.04Z"/>
      <path class="cls-24" d="M317.36,401.32c-.55-.38-.9-.89-1.07-1.52-.16-.64-.13-1.35.11-2.14.24-.79.68-1.62,1.33-2.48s1.33-1.51,2.05-1.97c.72-.46,1.42-.71,2.1-.75.68-.04,1.3.13,1.84.52.43.3.7.63.82.99.12.35.16.69.13,1-.03.32-.07.57-.11.77l.08.06,3.06-4,1.06.76-8.23,10.73-1.02-.71.95-1.24-.12-.08c-.18.1-.43.21-.74.33-.31.12-.66.19-1.04.18-.39,0-.79-.15-1.21-.44ZM318.4,400.28c.4.28.84.39,1.31.33.47-.06.95-.27,1.44-.63.49-.36.96-.83,1.42-1.42s.78-1.16.99-1.71c.2-.54.26-1.04.18-1.48-.08-.45-.33-.81-.73-1.1s-.87-.41-1.35-.34c-.48.07-.96.28-1.45.64s-.94.81-1.36,1.37-.75,1.13-.96,1.68c-.21.56-.28,1.07-.2,1.54.07.47.32.84.72,1.13Z"/>
      <path class="cls-24" d="M331.58,398.72l-.86,1.1-3.84-2.72.85-1.11,3.84,2.73ZM322.87,404.9l6.99-9.07c.36-.47.75-.79,1.17-.98.42-.19.83-.26,1.24-.22s.77.18,1.08.4c.25.18.43.35.56.52.12.17.21.3.25.4l-1.15.9c-.04-.06-.09-.14-.15-.23s-.17-.19-.32-.29c-.32-.23-.64-.3-.94-.2-.31.1-.61.34-.91.73l-6.77,8.77-1.05-.73Z"/>
      <path class="cls-24" d="M331.52,403.63l-3.69,4.73-1.04-.73,8.24-10.61,1.04.75-3.58,4.6-.18-.13c.77-.6,1.46-.92,2.06-.97.6-.05,1.15.1,1.64.44.43.31.73.69.88,1.14.15.45.15.96-.01,1.53-.16.57-.51,1.19-1.03,1.86l-3.91,4.98-1.04-.72,3.83-4.89c.48-.61.72-1.18.73-1.7.01-.53-.21-.95-.66-1.27-.31-.22-.65-.33-1.02-.34s-.76.1-1.15.31-.76.55-1.12,1.01Z"/>
      <path class="cls-24" d="M339.93,404.64l1.03.73-6.62,8.39c-.38.49-.78.87-1.2,1.12-.42.25-.84.38-1.26.37s-.84-.16-1.26-.44l-.21-.14.91-1.15.19.13c.3.21.59.25.89.14.3-.11.6-.36.9-.74l6.62-8.4ZM341.47,403.72c-.19-.14-.3-.34-.31-.61-.01-.27.08-.52.26-.75s.41-.39.68-.45c.27-.06.5-.02.7.11s.3.34.31.61c.01.26-.08.51-.26.75s-.41.38-.68.44c-.27.07-.51.03-.7-.11Z"/>
      <path class="cls-24" d="M323.47,379.03c-.5-.36-.87-.75-1.11-1.17-.25-.42-.39-.85-.44-1.29-.05-.44-.02-.86.06-1.27l1.41-.07c-.02.23-.04.5-.04.8,0,.3.06.61.2.92.14.31.41.61.8.9.54.39,1.1.55,1.69.48.59-.07,1.14-.45,1.66-1.14l1.27-1.69-.1-.07c-.2.11-.45.22-.75.34-.3.12-.65.17-1.03.15-.39-.02-.79-.19-1.23-.5-.54-.39-.9-.91-1.09-1.54-.19-.64-.18-1.35.03-2.16.21-.8.65-1.65,1.32-2.54s1.36-1.56,2.09-2.03,1.45-.72,2.16-.76c.7-.04,1.33.15,1.89.57.43.32.71.67.83,1.04.12.37.16.73.13,1.07-.04.34-.07.61-.11.82l.1.08,1.03-1.37,1.05.78-6.57,8.68c-.54.72-1.12,1.21-1.72,1.48-.6.27-1.21.35-1.81.24-.6-.11-1.18-.36-1.72-.75ZM326.95,374.34c.41.3.84.43,1.3.41.46-.03.92-.21,1.4-.55.48-.34.95-.81,1.41-1.43s.78-1.19.99-1.75c.2-.56.27-1.08.18-1.55s-.33-.86-.74-1.17-.89-.44-1.38-.37c-.49.07-.99.28-1.48.64-.49.36-.95.82-1.38,1.39s-.75,1.15-.94,1.71c-.19.55-.24,1.06-.14,1.52.1.46.36.84.78,1.15Z"/>
      <path class="cls-24" d="M335.67,374.96l-3.83,5.03-1.07-.78,8.56-11.28,1.07.8-3.72,4.89-.18-.14c.8-.63,1.51-.97,2.13-1.02.62-.05,1.19.11,1.69.48.45.33.75.74.91,1.22.16.48.15,1.03-.02,1.64-.17.61-.53,1.27-1.08,1.98l-4.06,5.29-1.07-.78,3.97-5.19c.49-.65.75-1.25.76-1.81.01-.56-.21-1.02-.67-1.36-.32-.23-.67-.36-1.06-.37s-.78.1-1.19.33-.79.59-1.16,1.07Z"/>
      <path class="cls-24" d="M347.39,378.37l-.89,1.15-3.85-2.86.89-1.16,3.85,2.87ZM338.41,384.79l7.28-9.44c.38-.49.78-.83,1.21-1.02.43-.19.85-.27,1.26-.22s.78.19,1.09.43c.25.19.44.37.56.54.12.18.21.31.25.42l-1.19.94c-.04-.07-.08-.15-.15-.24s-.17-.2-.32-.31c-.32-.24-.64-.31-.95-.21-.31.1-.63.36-.94.76l-7.05,9.13-1.05-.77Z"/>
      <path class="cls-24" d="M350.92,381l-.89,1.14-3.36-2.49.89-1.15,3.36,2.5ZM350.08,377.24l1.05.78-6.31,8.11c-.29.37-.44.68-.45.93-.01.25.12.48.39.68.07.05.16.1.27.15.12.06.23.1.33.15l-.65,1.27c-.15-.03-.3-.08-.45-.16s-.3-.16-.44-.26c-.56-.41-.85-.91-.87-1.52-.02-.6.23-1.24.75-1.91l6.39-8.23Z"/>
      <path class="cls-24" d="M350.7,386.06l-3.84,4.9-1.04-.76,8.59-10.98,1.04.78-3.73,4.76-.18-.13c.79-.62,1.5-.95,2.11-1,.61-.05,1.16.11,1.65.47.43.32.72.72.87,1.19.15.47.13,1-.05,1.59-.18.59-.54,1.23-1.09,1.92l-4.07,5.15-1.03-.75,3.98-5.05c.5-.63.76-1.22.78-1.76.02-.55-.19-.99-.64-1.32-.31-.23-.65-.35-1.03-.36s-.77.1-1.17.32-.78.57-1.15,1.04Z"/>
      <polygon id="blink" points="348.34 401.58 334.74 418.72 336.11 419.68 349.72 402.58 348.34 401.58"/>
    </g>
    <g id="cat">
      <g>
        <path class="cls-23" d="M337.36,349.77c-.35,16.99-7.37,33.92-17.25,48.6-15.65,23.26-45.28,34.15-75.86,32.05-6.71-.45-13.29-1.44-19.53-2.94-34.59-8.29-56.43-34.43-54.68-57.48.61-7.97,4.03-15.57,10.72-21.93,20.37-15.26,69.66,36.1,100.2,13.55,8.76-6.78,16.06-15.24,24.08-22.85,3.93-3.9,8.05-7.91,13.27-9.74,10.66-3.71,19.04-32.06,18.47-18.37-.21,5.11,1.01,17.55.57,39.11Z"/>
        <path class="cls-14" d="M283.26,355.74c-4.73,0-9.06-3.15-10.34-7.93l-6.59-24.56-16.53.19c-5.93.09-10.6-2.88-10.66-8.78-.07-5.91,4.88-8.45,10.8-8.51l24.47-4.38c4.88-.06,9.21,3.21,10.47,7.93l8.74,32.59c1.53,5.7-1.86,11.57-7.58,13.1-.93.25-1.86.37-2.78.37Z"/>
        <path class="cls-13" d="M310.88,303.87c-9.92.68-15.44,14.13-19.8,21.24-7.26,11.85-16.3,17.85-33.77,18.48-5.08-12.79-19.93-21.8-33.44-20.57l16.24-24.32c3.3-4.18,2.1-10.23-2.31-13.11-3.89-3.03-9.51-2.33-12.54,1.55-7.66,18.44-22.99,36.31-42.09,53.91l4.07,3.17c-70.11,38.87,122.3,122.15,126.83-2.41-21.23-24.14,24.29-35.82-3.19-37.94Z"/>
        <path id="tail" class="cls-10" d="M199.7,239.17c-1.55-5.06-7.79-20.48-11.84-24.88-8.51-9.24-24.23-12.32-26.97.16-2.06,9.38,7.01,20.59,13.97,33.25-2.53,1.25-6.37,3.54-8.53,5.84,4.38-2.33,8.97-.77,11.85.77.03.08.07.15.1.23-2.73-.36-6.66-.36-9.85,1.72,6.19-1.58,10.86,3.51,12.52,5.66,1.88,6.86,2.02,14.06-1.25,21.54-4.55,10.22-10.48,17.23-15.53,27.21-13.54,26.5,2.25,66.29,11.28,82.86,6.73,12.35,5.86-.22,7.77-22.65-2.85-7.26-4.38-18.96-5.78-26.62-12.35-50.06,38.07-53.52,22.27-105.08Z"/>
        <path class="cls-11" d="M283.58,292.59c8.28-1.49,33.21,1.59,13.1-15.51-6.84-5.81-14.01-13.37-17.17-16.79-.93-1-2.51-1.01-3.44,0-3.54,3.83-10.99,13.14-9.36,22.18,2.12,11.76,8.6,11.61,16.88,10.12Z"/>
        <path class="cls-9" d="M336.78,321.3c.41,16.29-24.97,23.4-46.66,15.03-13.9-5.36-24.15-15.13-28.17-25.46-2.25-5.78-2.55-11.74-.44-17.2,4.86-12.56,20.97-18.53,38.65-15.5,3.71.63,7.49,1.67,11.26,3.12,19.37,7.47,23.99,18.35,25.09,34.14.13,1.89.21,3.84.26,5.87Z"/>
        <path class="cls-8" d="M352.54,281.45c-.15-.11-.31-.22-.48-.32-7.86-4.89-32.19,2.06-34.7,2.8-1.81-.92-3.78-1.8-5.94-2.63-3.77-1.45-7.55-2.48-11.26-3.12-3.28,4.15-5.2,9.22-5.2,14.7,0,14.07,12.69,25.47,28.35,25.47,4.67,0,9.07-1.02,12.95-2.81.24.22.48.43.7.62,0,0,23.26-28.91,15.56-34.71Z"/>
        <path class="cls-2" d="M322.09,284.68c.86,7.9-6.51,8.45-19.45,5.79-11.54-2.38-21.72-8.72-21.72-11.47s9.3-.83,21.27-.83,19.6,3.78,19.9,6.51Z"/>
        <path class="cls-1" d="M336.98,316.16h0s0-.03-.02-.05c-.4-.8-5.95-11.91-6.23-15.56-.29-3.79,6.7-8.91,11.28-12.4,2.5-1.9,6.74-4.79,10.06-7.02.17.1.32.21.48.32.32.24.59.52.8.85,4.98,7.32-16.37,33.86-16.37,33.86Z"/>
        <path class="cls-35" d="M336.98,316.16h0s0-.03-.02-.05c-1.26-4.11,3.6-10.74,5.46-13.02,4.76-5.84,6.25-8.25,8.72-13.2.68-1.38,2.05-4.87,2.22-7.6,4.98,7.32-16.37,33.86-16.37,33.86Z"/>
        <path class="cls-12" d="M323.12,389.79c-23.89,35.53-120.11,44.01-147.35.64-3.7-5.88-5.25-12.85-4.72-19.78,1.43-18.72.64-35.94-5.95-49.25-.57-4.89,2.94-9.32,7.85-9.89l.96-.11c4.9-.57,9.33,2.95,9.9,7.84,3.75,8.96,5.52,18.94,5.34,29.91,5.11-6.61,12.42-11.19,21.62-12.25,18.74-2.16,36.58,11.17,37.85,29.96,2.32,34.51,36.81,22.17,36.81,22.17,0,0,23.87-8.54,20.5-18.6-1.6-4.77-4.09-9.51-6.87-13.63l-26.87,11.97s-.03.01-.04.01c0,0,0,0,0,0-5.39,2.37-9.63,2.16-12.03-3.21-2.41-5.4-1.26-8.88,4.14-11.29l31.94-16.18c2.79-1.24,7.25-3.16,10.04-1.91,2.79,1.24,6.94,2.72,7.87,5.62l18.52,24.91c1.8,5.63-5,16.43-9.47,23.08Z"/>
        <path class="cls-16" d="M283.93,296.25c-1.04-5.15-4.2-6.67-9.15-4.34l-.6-1.65"/>
        <path class="cls-16" d="M298.08,300.27c4.95-2.33,7.96-1.55,10.55,4.45l2.25-.85"/>
        <path class="cls-17" d="M281.91,312.67l-.69,1.58c-.72,1.66.22,3.53,2.08,4.11h0c1.46.45,3.04-.04,3.92-1.13"/>
        <path class="cls-17" d="M281.34,313.95c-.85,1.61-3,2.27-4.74,1.43h0c-1.35-.65-2.04-2.02-1.77-3.33"/>
        <path class="cls-1" d="M280.52,312.09c-1.17-1.63-1.79-3.36-2.29-4.94-.48-1.57.36-2.6,1.71-2.54,2.68.11,6.81,1.63,8.93,3.27,1.06.82.89,2.02-.35,3.04-1.4.98-3.02,1.77-4.95,2.29-1.43.09-2.14-.11-3.05-1.12Z"/>
        <ellipse class="cls-35" cx="229.27" cy="295.65" rx="3.08" ry="3.07"/>
        <ellipse class="cls-35" cx="229.13" cy="288.99" rx="1.54" ry="2.11"/>
        <ellipse class="cls-35" cx="233.38" cy="289.89" rx="2.11" ry="1.54" transform="translate(-125.77 387.44) rotate(-66.36)"/>
        <ellipse class="cls-35" cx="236.49" cy="292.57" rx="2.12" ry="1.54" transform="translate(-135.42 235.89) rotate(-42.39)"/>
        <path class="cls-27" d="M244.26,430.41c-6.73-.45-13.73-1.07-20-2.56-34.74-8.29-55-33.78-53.24-56.83,2.76,3.32,3.7,7.6,6.57,10.37,5.12,4.94,12.16,8.4,19.25,7.58,36.91-9.77,8.03,31.5,35.63,27.77,4.33.16,8.61,2.55,10.7,6.33,1.34,2.36,1.63,4.94,1.1,7.34Z"/>
        <path class="cls-28" d="M305.91,370.42c-1.6-4.77-4.09-9.51-6.87-13.63l-26.87,11.97s-.03.01-.04.01c1.12-.92,3.03-1.59,3.8-3.01.73-3.35,3.17-6.26,6.17-7.91,2.77-1.28,5.58.68,8.3,1.08,3.16.16,5.27-3.23,8.23-4.37,1.89-.92,3.48.48,3.97,2.33.62,2.96,4.19,10,3.32,13.52Z"/>
        <ellipse class="cls-36" cx="300.96" cy="311.33" rx="5.09" ry="5.08"/>
        <ellipse class="cls-36" cx="271.07" cy="298.81" rx="5.09" ry="5.08"/>
        <path class="cls-24" d="M352.07,281.12s-19.61,15.32-19.76,17.69,4.67,17.34,4.67,17.34c0,0-6.96-13.13-7.03-16.93-.08-3.8,22.12-18.1,22.12-18.1Z"/>
        <path class="cls-29" d="M322.17,284.12c-.59,3.88-10.19,4.51-19.97,3.23h0c-10.82-1.41-21.85-5.15-21.2-9.44l8.4-15.46,13.22-24.33,5.53-10.18c.73-1.34,2.56-1.07,2.86.43l8.92,44.55,2.24,11.18Z"/>
        <path class="cls-30" d="M306.21,250.48c-1.19,7.9-7.99,13.42-15.19,12.34-.56-.08-1.1-.2-1.62-.36l13.22-24.33c2.84,3.09,4.31,7.61,3.59,12.35Z"/>
        <path class="cls-31" d="M322.17,284.12c-.59,3.88-10.19,4.51-19.97,3.23h0c-.01-.88.04-1.78.18-2.68,1.19-7.9,7.99-13.42,15.19-12.34.83.12,1.62.33,2.37.61l2.24,11.18Z"/>
        <ellipse class="cls-32" cx="308.51" cy="264.27" rx="5.52" ry="5.03" transform="translate(.34 528.93) rotate(-81.24)"/>
        <ellipse class="cls-33" cx="290.39" cy="273.04" rx="2.49" ry="2.27" transform="translate(-23.69 518.46) rotate(-81.24)"/>
        <ellipse class="cls-34" cx="310.87" cy="248.66" rx="2.49" ry="2.27" transform="translate(17.77 518.04) rotate(-81.24)"/>
        <path class="cls-23" d="M275.11,392.21l8.11-.49s-.6-7.8-4.32-13.2c1.38,4.91-1.34,9.16-3.5,11.6.32-2.79.47-6.86-.63-10.49-.2,5.26-4.32,8.52-7.14,10.14,1.74-2.15,3.94-5.69,3.73-9.7-2.2,7.72-12.33,8.06-12.33,8.06l6.57,3.82s.25-.22.64-.62l8.6,2.19s.12-.48.26-1.31Z"/>
        <path class="cls-17" d="M273.71,307.32s-13.16-9.36-24.72-9.06"/>
        <path class="cls-17" d="M274.17,303.61s-9.44-10.49-19.68-11.71"/>
        <path class="cls-17" d="M293,311.33s17.33.72,30.11,9.48"/>
        <path class="cls-17" d="M292.1,315.06s19.71,4.02,26.7,11.41"/>
      </g>
    </g>
  </g>
</svg>