<svg viewBox="0 0 640 540" xmlns="http://www.w3.org/2000/svg"><path d="m0 30c213.3 96 426.7-96 640 0v480c-213.3-96-426.7 96-640 0z" fill="#ee1c25"/><g fill="#ff0"><path d="m76.8 230.7c14.4-40.8 28.8-82.6 43.2-125.3 14.4 43.8 28.8 86.7 43.2 129-38.4-24-76.8-52.5-115.2-89 48 12.6 96 12.8 144 7.2-38.4 30.9-76.8 58.1-115.2 78.1z"/><path d="m264.2 92.7c-14.8 6.3-29.6 12.4-44.5 18 9.9-13.1 19.8-26.4 29.7-39.8-1 15.7-1.9 31.4-2.9 47.1-8.2-12.2-16.4-24.4-24.7-36.8 14.1 4.2 28.3 8 42.4 11.5z"/><path d="m309 139.8c-14.9.6-29.9 1.2-44.8 1.5 13.6-9.6 27.2-19.3 40.7-29.1-6.9 15.5-13.8 30.9-20.7 46.3-2.3-15.4-4.5-30.7-6.8-46.1 10.5 9.2 21 18.3 31.6 27.4z"/><path d="m302.5 221c-12.5-5.8-25-11.6-37.6-17.6 15.2-3.8 30.3-7.8 45.5-11.8-12 12.6-24 25.1-35.9 37.5 4.4-16.3 8.8-32.6 13.2-49 4.9 13.6 9.9 27.3 14.8 40.9z"/><path d="m246 285c-8.2-11.2-16.5-22.5-24.7-33.9 14.2 3 28.5 5.5 42.7 7.9-14.9 7.5-29.7 14.8-44.6 21.7 10-14.1 20-28.3 30-42.8-1.1 15.7-2.3 31.4-3.4 47.1z"/></g></svg>