<svg viewBox="0 0 640 560" xmlns="http://www.w3.org/2000/svg"><path d="m-1.5 38c213.8 96.2 427.7-96.2 641.5 0v481c-213.8-96.2-427.7 96.2-641.5 0" fill="#b31942"/><path d="m640 482c-213.8-96.2-427.7 96.2-641.5 0v-37c213.8 96.2 427.7-96.2 641.5 0zm0-74c-213.8-96.2-427.7 96.2-641.5 0v-37c213.8 96.2 427.7-96.2 641.5 0zm0-74c-213.8-96.2-427.7 96.2-641.5 0v-37c213.8 96.2 427.7-96.2 641.5 0zm0-74c-213.8-96.2-427.7 96.2-641.5 0v-37c213.8 96.2 427.7-96.2 641.5 0zm0-74c-213.8-96.2-427.7 96.2-641.5 0v-37c213.8 96.2 427.7-96.2 641.5 0zm0-74c-213.8-96.2-427.7 96.2-641.5 0v-37c213.8 96.2 427.7-96.2 641.5 0z" fill="#fff"/><path d="m-1.5 38c122.2 55 244.3 15.7 366.5-10.1v259.7c-122.2 25.8-244.3 65-366.5 10.1" fill="#0a3161"/><g fill="#fff"><path d="m29 61c2.9 9.9 5.8 19.8 8.7 29.6-7.6-7.8-15.2-15.9-22.8-24.3 9.4 3.6 18.8 6.7 28.2 9.3-7.6 3.4-15.2 6.6-22.8 9.3 2.9-7.9 5.8-15.8 8.7-23.8z"/><path d="m29 112.9c2.9 9.9 5.8 19.8 8.7 29.6-7.6-7.8-15.2-15.9-22.8-24.3 9.4 3.6 18.8 6.7 28.2 9.3-7.6 3.4-15.2 6.6-22.8 9.3 2.9-7.9 5.8-15.8 8.7-23.8z"/><path d="m29 164.8c2.9 9.9 5.8 19.8 8.7 29.6-7.6-7.8-15.2-15.9-22.8-24.3 9.4 3.6 18.8 6.7 28.2 9.3-7.6 3.4-15.2 6.6-22.8 9.3 2.9-7.9 5.8-15.8 8.7-23.8z"/><path d="m29 216.8c2.9 9.9 5.8 19.8 8.7 29.6-7.6-7.8-15.2-15.9-22.8-24.3 9.4 3.6 18.8 6.7 28.2 9.3-7.6 3.4-15.2 6.6-22.8 9.3 2.9-7.9 5.8-15.8 8.7-23.8z"/><path d="m29 268.7c2.9 9.9 5.8 19.8 8.7 29.6-7.6-7.8-15.2-15.9-22.8-24.3 9.4 3.6 18.8 6.7 28.2 9.3-7.6 3.4-15.2 6.6-22.8 9.3 2.9-7.9 5.8-15.8 8.7-23.8z"/><path d="m59.6 95.2c2.9 9.6 5.8 19.1 8.7 28.6-7.6-7-15.2-14.2-22.8-21.8 9.4 2.5 18.8 4.5 28.2 6.1-7.6 4.2-15.2 8.2-22.8 11.8 2.9-8.2 5.8-16.5 8.7-24.8z"/><path d="m59.6 147.2c2.9 9.6 5.8 19.1 8.7 28.6-7.6-7-15.2-14.2-22.8-21.8 9.4 2.5 18.8 4.5 28.2 6.1-7.6 4.2-15.2 8.2-22.8 11.8 2.9-8.2 5.8-16.5 8.7-24.8z"/><path d="m59.6 199.1c2.9 9.6 5.8 19.1 8.7 28.6-7.6-7-15.2-14.2-22.8-21.8 9.4 2.5 18.8 4.5 28.2 6.1-7.6 4.2-15.2 8.2-22.8 11.8 2.9-8.2 5.8-16.5 8.7-24.8z"/><path d="m59.6 251c2.9 9.6 5.8 19.1 8.7 28.6-7.6-7-15.2-14.2-22.8-21.8 9.4 2.5 18.8 4.5 28.2 6.1-7.6 4.2-15.2 8.2-22.8 11.8 2.9-8.2 5.8-16.5 8.7-24.8z"/><path d="m90.1 74.4c2.9 9.3 5.8 18.6 8.7 27.8-7.6-6.2-15.2-12.7-22.8-19.5 9.4 1.5 18.8 2.6 28.2 3.4-7.6 4.9-15.2 9.6-22.8 14 2.9-8.5 5.8-17.1 8.7-25.7z"/><path d="m90.1 126.3c2.9 9.3 5.8 18.6 8.7 27.8-7.6-6.2-15.2-12.7-22.8-19.5 9.4 1.5 18.8 2.6 28.2 3.4-7.6 4.9-15.2 9.6-22.8 14 2.9-8.5 5.8-17.1 8.7-25.7z"/><path d="m90.1 178.2c2.9 9.3 5.8 18.6 8.7 27.8-7.6-6.2-15.2-12.7-22.8-19.5 9.4 1.5 18.8 2.6 28.2 3.4-7.6 4.9-15.2 9.6-22.8 14 2.9-8.5 5.8-17.1 8.7-25.7z"/><path d="m90.1 230.2c2.9 9.3 5.8 18.6 8.7 27.8-7.6-6.2-15.2-12.7-22.8-19.5 9.4 1.5 18.8 2.6 28.2 3.4-7.6 4.9-15.2 9.6-22.8 14 2.9-8.5 5.8-17.1 8.7-25.7z"/><path d="m90.1 282.1c2.9 9.3 5.8 18.6 8.7 27.8-7.6-6.2-15.2-12.7-22.8-19.5 9.4 1.5 18.8 2.6 28.2 3.4-7.6 4.9-15.2 9.6-22.8 14 2.9-8.5 5.8-17.1 8.7-25.7z"/><path d="m120.7 102.6c2.9 9 5.8 18.1 8.7 27-7.6-5.6-15.2-11.5-22.8-17.5 9.4.7 18.8 1 28.2 1-7.6 5.5-15.2 10.9-22.8 16 2.9-8.8 5.8-17.6 8.7-26.4z"/><path d="m120.7 154.6c2.9 9 5.8 18.1 8.7 27-7.6-5.6-15.2-11.5-22.8-17.5 9.4.7 18.8 1 28.2 1-7.6 5.5-15.2 10.9-22.8 16 2.9-8.8 5.8-17.6 8.7-26.4z"/><path d="m120.7 206.5c2.9 9 5.8 18.1 8.7 27-7.6-5.6-15.2-11.5-22.8-17.5 9.4.7 18.8 1 28.2 1-7.6 5.5-15.2 10.9-22.8 16 2.9-8.8 5.8-17.6 8.7-26.4z"/><path d="m120.7 258.4c2.9 9 5.8 18.1 8.7 27-7.6-5.6-15.2-11.5-22.8-17.5 9.4.7 18.8 1 28.2 1-7.6 5.5-15.2 10.9-22.8 16 2.9-8.8 5.8-17.6 8.7-26.4z"/><path d="m151.2 76.6c2.9 8.8 5.8 17.6 8.7 26.4-7.6-5.1-15.2-10.4-22.8-15.8 9.4 0 18.8-.5 28.2-1.1-7.6 6.1-15.2 11.9-22.8 17.6 2.9-9 5.8-18 8.7-27.1z"/><path d="m151.2 128.5c2.9 8.8 5.8 17.6 8.7 26.4-7.6-5.1-15.2-10.4-22.8-15.8 9.4 0 18.8-.5 28.2-1.1-7.6 6.1-15.2 11.9-22.8 17.6 2.9-9 5.8-18 8.7-27.1z"/><path d="m151.2 180.4c2.9 8.8 5.8 17.6 8.7 26.4-7.6-5.1-15.2-10.4-22.8-15.8 9.4 0 18.8-.5 28.2-1.1-7.6 6.1-15.2 11.9-22.8 17.6 2.9-9 5.8-18 8.7-27.1z"/><path d="m151.2 232.4c2.9 8.8 5.8 17.6 8.7 26.4-7.6-5.1-15.2-10.4-22.8-15.8 9.4 0 18.8-.5 28.2-1.1-7.6 6.1-15.2 11.9-22.8 17.6 2.9-9 5.8-18 8.7-27.1z"/><path d="m151.2 284.3c2.9 8.8 5.8 17.6 8.7 26.4-7.6-5.1-15.2-10.4-22.8-15.8 9.4 0 18.8-.5 28.2-1.1-7.6 6.1-15.2 11.9-22.8 17.6 2.9-9 5.8-18 8.7-27.1z"/><path d="m181.7 100.3c2.9 8.7 5.8 17.3 8.7 25.9-7.6-4.6-15.2-9.4-22.8-14.4 9.4-.7 18.8-1.7 28.2-2.8-7.6 6.5-15.2 12.8-22.8 19 2.9-9.2 5.8-18.4 8.7-27.7z"/><path d="m181.7 152.3c2.9 8.7 5.8 17.3 8.7 25.9-7.6-4.6-15.2-9.4-22.8-14.4 9.4-.7 18.8-1.7 28.2-2.8-7.6 6.5-15.2 12.8-22.8 19 2.9-9.2 5.8-18.4 8.7-27.7z"/><path d="m181.7 204.2c2.9 8.7 5.8 17.3 8.7 25.9-7.6-4.6-15.2-9.4-22.8-14.4 9.4-.7 18.8-1.7 28.2-2.8-7.6 6.5-15.2 12.8-22.8 19 2.9-9.2 5.8-18.4 8.7-27.7z"/><path d="m181.7 256.1c2.9 8.7 5.8 17.3 8.7 25.9-7.6-4.6-15.2-9.4-22.8-14.4 9.4-.7 18.8-1.7 28.2-2.8-7.6 6.5-15.2 12.8-22.8 19 2.9-9.2 5.8-18.4 8.7-27.7z"/><path d="m212.3 70.5 8.7 25.5c-7.6-4.3-15.2-8.7-22.8-13.3 9.4-1.2 18.8-2.6 28.2-4.2-7.6 6.8-15.2 13.5-22.8 20.1 2.9-9.3 5.8-18.7 8.7-28.1z"/><path d="m212.3 122.4c2.9 8.5 5.8 17 8.7 25.5-7.6-4.3-15.2-8.7-22.8-13.3 9.4-1.2 18.8-2.6 28.2-4.2-7.6 6.8-15.2 13.5-22.8 20.1 2.9-9.3 5.8-18.7 8.7-28.1z"/><path d="m212.3 174.4c2.9 8.5 5.8 17 8.7 25.5-7.6-4.3-15.2-8.7-22.8-13.3 9.4-1.2 18.8-2.6 28.2-4.2-7.6 6.8-15.2 13.5-22.8 20.1 2.9-9.3 5.8-18.7 8.7-28.1z"/><path d="m212.3 226.3 8.7 25.5c-7.6-4.3-15.2-8.7-22.8-13.3 9.4-1.2 18.8-2.6 28.2-4.2-7.6 6.8-15.2 13.5-22.8 20.1 2.9-9.3 5.8-18.7 8.7-28.1z"/><path d="m212.3 278.2 8.7 25.5c-7.6-4.3-15.2-8.7-22.8-13.3 9.4-1.2 18.8-2.6 28.2-4.2-7.6 6.8-15.2 13.5-22.8 20.1 2.9-9.3 5.8-18.7 8.7-28.1z"/><path d="m242.8 91.3c2.9 8.4 5.8 16.8 8.7 25.2-7.6-4-15.2-8.2-22.8-12.4 9.4-1.6 18.8-3.4 28.2-5.3-7.6 7-15.2 14-22.8 20.9 2.9-9.5 5.8-18.9 8.7-28.4z"/><path d="m242.8 143.2c2.9 8.4 5.8 16.8 8.7 25.2-7.6-4-15.2-8.2-22.8-12.4 9.4-1.6 18.8-3.4 28.2-5.3-7.6 7-15.2 14-22.8 20.9 2.9-9.5 5.8-18.9 8.7-28.4z"/><path d="m242.8 195.2c2.9 8.4 5.8 16.8 8.7 25.2-7.6-4-15.2-8.2-22.8-12.4 9.4-1.6 18.8-3.4 28.2-5.3-7.6 7-15.2 14-22.8 20.9 2.9-9.5 5.8-18.9 8.7-28.4z"/><path d="m242.8 247.1c2.9 8.4 5.8 16.8 8.7 25.2-7.6-4-15.2-8.2-22.8-12.4 9.4-1.6 18.8-3.4 28.2-5.3-7.6 7-15.2 14-22.8 20.9 2.9-9.5 5.8-18.9 8.7-28.4z"/><path d="m273.4 59.2c2.9 8.3 5.8 16.7 8.7 25-7.6-3.9-15.2-7.8-22.8-11.8 9.4-1.9 18.8-3.9 28.2-5.9-7.6 7.2-15.2 14.3-22.8 21.4 2.9-9.5 5.8-19.1 8.7-28.7z"/><path d="m273.4 111.2c2.9 8.3 5.8 16.7 8.7 25-7.6-3.9-15.2-7.8-22.8-11.8 9.4-1.9 18.8-3.9 28.2-5.9-7.6 7.2-15.2 14.3-22.8 21.4 2.9-9.5 5.8-19.1 8.7-28.7z"/><path d="m273.4 163.1c2.9 8.3 5.8 16.7 8.7 25-7.6-3.9-15.2-7.8-22.8-11.8 9.4-1.9 18.8-3.9 28.2-5.9-7.6 7.2-15.2 14.3-22.8 21.4 2.9-9.5 5.8-19.1 8.7-28.7z"/><path d="m273.4 215c2.9 8.3 5.8 16.7 8.7 25-7.6-3.9-15.2-7.8-22.8-11.8 9.4-1.9 18.8-3.9 28.2-5.9-7.6 7.2-15.2 14.3-22.8 21.4 2.9-9.5 5.8-19.1 8.7-28.7z"/><path d="m273.4 267c2.9 8.3 5.8 16.7 8.7 25-7.6-3.9-15.2-7.8-22.8-11.8 9.4-1.9 18.8-3.9 28.2-5.9-7.6 7.2-15.2 14.3-22.8 21.4 2.9-9.5 5.8-19.1 8.7-28.7z"/><path d="m303.9 78.5c2.9 8.3 5.8 16.6 8.7 24.9-7.6-3.8-15.2-7.6-22.8-11.5l28.2-6.3c-7.6 7.2-15.2 14.5-22.8 21.7 2.9-9.6 5.8-19.2 8.7-28.8z"/><path d="m303.9 130.5c2.9 8.3 5.8 16.6 8.7 24.9-7.6-3.8-15.2-7.6-22.8-11.5 9.4-2.1 18.8-4.2 28.2-6.3-7.6 7.2-15.2 14.5-22.8 21.7 2.9-9.6 5.8-19.2 8.7-28.8z"/><path d="m303.9 182.4c2.9 8.3 5.8 16.6 8.7 24.9-7.6-3.8-15.2-7.6-22.8-11.5 9.4-2.1 18.8-4.2 28.2-6.3-7.6 7.2-15.2 14.5-22.8 21.7 2.9-9.6 5.8-19.2 8.7-28.8z"/><path d="m303.9 234.3c2.9 8.3 5.8 16.6 8.7 24.9-7.6-3.8-15.2-7.6-22.8-11.5 9.4-2.1 18.8-4.2 28.2-6.3-7.6 7.2-15.2 14.5-22.8 21.7 2.9-9.6 5.8-19.2 8.7-28.8z"/><path d="m334.5 45.7c2.9 8.3 5.8 16.6 8.7 24.9-7.6-3.8-15.2-7.7-22.8-11.5 9.4-2.1 18.8-4.2 28.2-6.3-7.6 7.2-15.2 14.4-22.8 21.7 2.9-9.6 5.8-19.2 8.7-28.8z"/><path d="m334.5 97.6c2.9 8.3 5.8 16.6 8.7 24.9-7.6-3.8-15.2-7.7-22.8-11.5 9.4-2.1 18.8-4.2 28.2-6.3-7.6 7.2-15.2 14.4-22.8 21.7 2.9-9.6 5.8-19.2 8.7-28.8z"/><path d="m334.5 149.6c2.9 8.3 5.8 16.6 8.7 24.9-7.6-3.8-15.2-7.7-22.8-11.5 9.4-2.1 18.8-4.2 28.2-6.3-7.6 7.2-15.2 14.4-22.8 21.7 2.9-9.6 5.8-19.2 8.7-28.8z"/><path d="m334.5 201.5c2.9 8.3 5.8 16.6 8.7 24.9-7.6-3.8-15.2-7.7-22.8-11.5 9.4-2.1 18.8-4.2 28.2-6.3-7.6 7.2-15.2 14.4-22.8 21.7 2.9-9.6 5.8-19.2 8.7-28.8z"/><path d="m334.5 253.4c2.9 8.3 5.8 16.6 8.7 24.9-7.6-3.8-15.2-7.7-22.8-11.5 9.4-2.1 18.8-4.2 28.2-6.3-7.6 7.2-15.2 14.4-22.8 21.7 2.9-9.6 5.8-19.2 8.7-28.8z"/></g></svg>