<svg viewBox="0 0 640 540" xmlns="http://www.w3.org/2000/svg"><path d="m256 43.8c128-25.3 256-71.4 384-13.8v480c-128-57.6-256-11.5-384 13.8z" fill="#f00"/><path d="m0 30c85.3 38.4 170.7 30.7 256 13.8v480c-85.3 16.9-170.7 24.6-256-13.8z" fill="#060"/><g stroke="#000"><path d="m339.5 331.8c-16.1 2.5-61.1-9-102.2-27.1-41.1-17.5-78.3-41.5-78.8-49.4 2.7-4.6 5.4-9.3 8.1-14 7.4 11 48.8 33.7 90.2 50.1 41.5 16.9 82.9 27.5 90.4 25-2.6 5.1-5.1 10.3-7.7 15.4z" fill="#ff0" fill-rule="evenodd" stroke-linecap="round" stroke-linejoin="round" stroke-width=".6"/><path d="m164.9 239.5c-2.9 8.1 38.6 31.3 88.4 51.5 49.8 20.3 92.9 28.5 96 25.5.5-1 1-2.1 1.5-3.1-.6 1.2-2 1.7-4.3 1.5-13.5-1.1-48.6-8.7-92.1-26.3-43.6-17.5-81.4-38.5-87.3-48.6-.5-.9-.7-2-.6-3.1 0 0-.1 0-.2 0-.4.8-.8 1.5-1.2 2.3 0 .1-.1.2-.2.3zm175.3 92.6c-.5 1-1.6 1.5-3.5 1.6-12 1.2-48.6-7.7-91.9-25.3-50.4-20.3-92-46.2-87.4-53.6.4-.8.8-1.5 1.2-2.3h.2c-4 14.3 82.1 52.7 87.2 53.3 49.8 21.1 91.8 28.9 95.5 23.6-.4.9-.9 1.7-1.3 2.6z" fill="#ff0" fill-rule="evenodd" stroke-linecap="round" stroke-linejoin="round" stroke-width=".6"/><path d="m256.2 251c32.2-6.7 72-20.2 95-34.3-1.7-2.3-3.3-4.6-5-6.9-13.5 10.3-53.5 24.8-90.3 32.9-43.4 8.3-74.1 7.2-89.5-2-1.5 3-3.1 5.9-4.6 8.9 28.2 10.3 57.2 8.7 94.4 1.5" fill="#ff0" fill-rule="evenodd" stroke-linecap="round" stroke-linejoin="round" stroke-width=".6"/><path d="m352.5 216.6c-.8 1.5-15.8 9.9-37.8 18.6-19.4 7.3-39 13.1-58.6 16.9-18.8 3.8-37.6 5.9-56.2 5.8-23.1-.7-35-5.2-39.5-6.6.4-.8.7-1.5 1.1-2.3 12.7 4.2 24.7 6.1 38.7 6.5 18.5 0 37.1-1.9 55.8-5.7 19.5-3.8 39-9.6 58.3-16.8 22.5-8.8 34.8-16.2 36.6-18.7.5.8 1.1 1.5 1.6 2.3zm-4.4-7.2c-2.4 2.5-14.6 9.5-36 17.8-18.5 6.8-37.1 12.3-55.8 16-22 4.4-40.1 5.7-53.8 5.5-21.8 0-33.4-4.5-37.6-5.6.4-.8.9-1.5 1.3-2.3 3.3 1.4 14.4 5.4 36.5 5.5 17.8 0 35.7-2 53.6-5.7 18.5-3.7 37.1-9.1 55.4-15.9 21.5-7.8 33.1-15.8 34.9-17.6.5.8 1 1.5 1.5 2.3zm-197.8 94c19.8 10.4 63.9 11.1 105.6 2.8 38-7.5 87.4-25.1 105.9-38.7-.2-3.5-.3-7.1-.5-10.6-5.8 9.9-58.8 31.2-105.8 40.5-47 9.5-90.7 5.8-105.3-3.5v9.5" fill="#ff0" fill-rule="evenodd" stroke-linecap="round" stroke-linejoin="round" stroke-width=".6"/><path d="m362.8 265v2.5c-2.8 4-20.2 12.7-42 21.3-21.7 8-43.5 14.4-65.4 18.5-20.7 4.3-41.5 6.4-62 5.8-15.3 0-30.3-2.8-44.4-8.5v-2.9c9.7 6.3 35.9 9 44.7 9.1 15.8.5 36.1-.8 61.7-5.8 26.9-5.4 48.4-12.2 65-18.4 15.7-5.9 38-16.7 42.4-21.5m0-9.1v2.5c-2.8 3.9-20.2 12.6-42 21.2-21.7 8-43.5 14.5-65.4 18.6-20.7 4.2-41.5 6.3-62 5.8-15.3 0-30.3-2.8-44.4-8.5v-3c9.7 6.4 36 9 44.7 9.1 20.4.5 41.1-1.5 61.7-5.7 26.9-5.4 48.5-12.4 65-18.5 15.7-5.8 38-16.6 42.4-21.4m-107 92.1c-45.6 9.2-84.7.3-93-1.4l6 9c28.1 7.9 57.6 8 87.4 1.7 34.7-7.9 65-17.9 86.3-32.9 2.1-3.7 4.1-7.4 6.2-11.2-14.5 10-64 29.2-93 34.9" fill="#ff0" fill-rule="evenodd" stroke-linecap="round" stroke-linejoin="round" stroke-width=".6"/><path d="m344.9 321.7c-.9 1.5-1.9 3.1-2.8 4.6-10 5.8-26 13.2-32.6 15.7-17.7 7.3-35.7 12.9-53.7 16.5-40.4 7.6-73.5 3.3-89-2.6-.4-.7-.9-1.3-1.3-2 0-.1.1-.3.2-.4.7.3 1.4.5 2.1.8 28.5 7.4 58.2 7.6 88.2 1.8 18.8-3.7 37.5-10 52.6-16.1 23.2-9.9 32.6-15.5 35.5-17.8.2-.2.5-.4.7-.6zm5.3-9.9c-.7 1.3-1.3 2.6-2 3.9-5.4 3.2-20 10.6-41.3 18.4-14 5-22.7 9-50.6 15.1-31.9 6-63.6 6.2-94.2-.9-.4-.8-.7-1.6-1.1-2.4 31.1 6.8 63.1 6.5 95.4.8 25.5-5.6 36.4-10.1 50.3-15.1 24.8-9.4 37.3-16.4 41-18.3v-.2c.9-.5 1.7-1 2.6-1.6v.1z" fill="#ff0" fill-rule="evenodd" stroke-linecap="round" stroke-linejoin="round" stroke-width=".6"/><path d="m350.8 260.7c0 30-15.3 60.4-27.6 74.9-18.1 21.8-42.4 37.5-67.8 42.9-30.3 6.6-58.8-9.3-66.5-17.3-17.2-16.4-27-40-27.5-65 1.8-32.9 14.7-56.4 33.3-74.3 18.1-17 40.8-28.8 64.2-33.3 27.6-4.2 53.4 2.7 71 20.1 12.5 12.4 18 27.7 20.9 52.1m-95.2-81.9c58.2-12 105.6 23.6 106 82.1 0 58-47.3 116.7-105.7 128.7-58.4 12.2-105.7-33.5-105.7-92.1 0-57.8 47.3-106.6 105.4-118.7" fill="#ff0" fill-rule="evenodd" stroke-linecap="round" stroke-linejoin="round" stroke-width=".6"/><path d="m255.9 178.3c58.2-12 105.6 24 105.6 82.6 0 57.8-47.4 116.6-105.5 128.6-58.1 12.2-105.6-33.6-105.6-92 0-58 47.4-107 105.6-119.2zm-103.3 119.1c0 57 46.7 101.7 103.3 89.8 56.6-11.7 103.3-69.4 103.3-125.8 0-57.2-46.7-92.5-103.3-80.8-56.6 11.9-103.3 60.2-103.3 116.8" fill="#ff0" fill-rule="evenodd" stroke-linecap="round" stroke-linejoin="round" stroke-width=".6"/><path d="m256 187.1c53.3-10.8 96.5 22 96.7 75.6-.1 53.1-43.3 106.8-96.7 117.9-53 11-96.7-30.2-96.7-83.6.2-53.2 43.4-98.7 96.7-109.9m-94.4 109.8c0 52.2 42.6 92.1 94.4 81.3 51.8-10.6 94.4-63.4 94.4-115 0-52.2-42.6-84.4-94.4-73.8-52 11.1-94.1 55.6-94.4 107.5" fill="#ff0" fill-rule="evenodd" stroke-linecap="round" stroke-linejoin="round" stroke-width=".6"/><path d="m260.3 177c-3 .6-6.1 1.2-9.1 1.8v212.3c3-.6 6-1.2 9-1.8 0-70.8 0-141.5 0-212.3z" fill="#ff0" fill-rule="evenodd" stroke-linecap="round" stroke-linejoin="round" stroke-width=".6"/><path d="m259.3 176c.8-.2 1.5-.3 2.3-.5v214.7c-.7.1-1.5.3-2.2.4v-214.7s0 0 0 0zm-9 1.7c.8-.2 1.6-.3 2.4-.5v214.7c-.8.1-1.5.3-2.3.4 0-71.6 0-143.1 0-214.7z" fill="#ff0" fill-rule="evenodd" stroke-linecap="round" stroke-linejoin="round" stroke-width=".6"/><path d="m361.6 265v-7.8c-2.1-1.5-4.3-3.1-6.4-4.6-12.1-.6-24.2-1.1-36.3-1.5-17.4 2.1-34.8 4.3-52.2 6.1-21 5.4-42 10.3-63 14.3-14.9 5.6-29.9 10.6-44.8 14.9-3 2.4-6 4.8-9 7.1v7.9c7.6-3.7 15.3-7.6 22.9-11.6 18.1-4.3 36.3-9.6 54.4-15.5 17.4-2.9 34.9-6.4 52.3-10.2 12.8-1.3 25.6-2.8 38.4-4.3 8.9.1 17.7.3 26.6.4z" fill="#ff0" fill-rule="evenodd" stroke-linecap="round" stroke-linejoin="round" stroke-width=".6"/><path d="m256 267.6c24.9-4.9 49-8.2 68.3-8.8 19.8-.5 33.7 1.5 38.5 6v2.8c-5.8-5.8-24.5-6.7-39-6.4-19 .7-43 3.8-67.9 8.7-26.1 5.2-50.5 11.6-69.3 17.2-15 4.8-35.1 11.7-37.6 17.5v-2.9c1.3-4.1 16.3-10.4 37.3-17 18.9-5.7 43.3-11.8 69.6-17.1zm0-9.1c22.9-4.6 45.8-7.8 68.3-8.8 19.8-.5 33.7 1.5 38.5 6.1v2.7c-5.8-5.7-24.5-6.7-39-6.3-19 .6-43 3.8-67.9 8.7-23.2 4.5-46.4 10.5-69.2 17.1-14.5 4.4-35.4 11.6-37.7 17.4v-2.8c1.4-4.1 16.6-10.7 37.3-17 19-5.7 43.3-11.9 69.7-17.2m-.6-46c39.3-8.1 73.6-10.6 89.3-6 1.9 2.9 3.8 5.8 5.7 8.7-13.6-4.6-50.6-3.3-94.9 6.7-36.1 7.7-74.7 16.1-94 27.4 2.3-3.9 4.5-7.9 6.8-11.9 15.9-9.2 53.3-18 87.1-25" fill="#ff0" fill-rule="evenodd" stroke-linecap="round" stroke-linejoin="round" stroke-width=".6"/><path d="m256 220.5c20.5-4.4 41-7.6 61.3-8.9 16-.6 31.3.4 33.5 2.3.6.9 1.1 1.8 1.7 2.6-5.3-2.3-18.6-3.2-35.6-2.6s-38.7 4.4-61 8.9c-25.3 4.9-45 9.3-61.8 14.3-11.6 3-22.8 7.5-33.3 13.3.6-1.1 1.1-2.1 1.7-3.2 6-3.4 15.3-7.7 31.1-12.5 17.5-5.3 37.4-9.3 62.4-14.4m0-8.8c21.4-4.4 42.6-8 59.1-8.7 10.7-.8 21 .2 30.6 3.2.8 1.1 1.7 2.3 2.5 3.4-4.2-3.8-20-4.8-34.1-4-16.4.8-36.7 4.3-58.1 8.3-19.9 3.8-39.8 8.7-59.5 14.2-10.3 2.7-20.3 6.8-29.6 12 .7-1.2 1.5-2.3 2.2-3.5 5.8-3.4 15.2-7 27-10.8 19.8-5.6 39.8-10.5 59.9-14.3zm52.4 105.1c-17.3.9-34.9 3.4-52.5 7.2-65.5 13.5-86.6 25.6-89.2 30-1.7-2.5-3.3-5.1-5-7.7 16.8-12.8 52.4-23.3 94.6-31.3 21.9-4 40.8-6.6 56.6-7.2-1.5 3-3 6-4.5 9" fill="#ff0" fill-rule="evenodd" stroke-linecap="round" stroke-linejoin="round" stroke-width=".6"/><path d="m255.6 322.8c18.2-3.3 36-6.5 53.3-7.2-.4.8-.8 1.6-1.2 2.5-16 .6-33.2 3.4-52 7.1-24.3 4.6-48.7 10.9-70 19.2-6.7 2.7-17.8 7.8-19 11.5-.4-.6-.8-1.3-1.2-1.9.4-2.2 7-7 19.6-11.7 24.4-9.6 47.2-14.8 70.5-19.5m.8-9.4c19.2-3.8 38.4-6.4 57.3-7.3-.4.9-.9 1.7-1.3 2.6-18.5.8-37.2 3.3-56 7.1-24.2 4.8-49.9 10.9-73.3 20-7.5 3-20.6 8.7-21 12.4-.4-.7-.8-1.4-1.2-2.1.2-3.4 11.5-8.6 21.7-12.5 23.5-9.2 49.3-15.2 73.8-20.2" fill="#ff0" fill-rule="evenodd" stroke-linecap="round" stroke-linejoin="round" stroke-width=".6"/><path d="m349.4 313.9c-2.6 4.7-5.2 9.3-7.8 14-7.6-5-15.1-10-22.7-15-19.5-8.8-39.1-17.6-58.6-26.8-22.1-7.7-44.1-15.9-66.2-25.3-11.4-2.5-22.9-5.4-34.3-8.6 2.4-4.7 4.9-9.4 7.3-14.1.8-.5 1.7-1 2.5-1.5 7.1 1.2 14.2 2.3 21.3 3.3 23.5 9.4 46.9 17.4 70.4 24.7 13.5 5.8 27.1 11.4 40.6 16.9 11.4 5.6 22.7 11.2 34.1 16.8 4.6 4.3 9.3 8.6 13.9 12.9-.2.9-.3 1.7-.5 2.6z" fill="#ff0" fill-rule="evenodd" stroke-linecap="round" stroke-linejoin="round" stroke-width=".6"/><path d="m158.6 252.6c6-4 50.2 12.2 96.6 30.5 46.1 18.7 90.3 39.7 86.3 46.7-.4.8-.9 1.6-1.3 2.4-.2.2-.4.4-.6.6 0-.1.8-1.2 0-3.1-2-6.3-33.4-23.5-85.3-44.3-50.7-19.6-92.9-35.3-97-30.1.4-.9.9-1.8 1.3-2.7zm192.4 60.9c3.8-8.7-37.2-29.9-88.1-49.3-52-18.6-89.6-33.1-96.5-27.5-.5 1-.9 2-1.4 3 0 0 0-.2.4-.5 1.2-1.1 3.3-1.2 4.2-1.3 11.8-.6 45.5 11.7 92.8 29 20.8 7.9 87.6 35.6 87.3 47.8 0 1 .1 1.2-.3 1.9.6-1 1.1-2 1.7-3 0 0 0 0-.1 0z" fill="#ff0" fill-rule="evenodd" stroke-linecap="round" stroke-linejoin="round" stroke-width=".6"/><path d="m192.6 305.9c0 16.7 6.8 32 18.7 42 11.8 10.2 27.8 14.3 44.6 11s32.9-13.5 44.8-28.1c11.9-14.4 18.5-32 18.6-48.7v-84.5c-42.2 9.4-84.4 18.8-126.6 23.7v84.6z" fill="#fff" stroke-miterlimit="4.3" stroke-width=".7"/><path d="m195.2 305.7c0 16 6.5 30.7 17.9 40.2 11.4 9.7 26.8 13.5 42.9 10.4 16.1-3.2 31.5-12.9 42.9-26.8 11.4-13.8 17.8-30.6 17.8-46.7v-82.1c-40.5 9.1-81 18.1-121.5 23.1zm97.1-74.9v52.2c0 1.8 0 3.6-.1 5.5 0 9.6-3.8 19.7-10.7 27.9-6.8 8.3-16 14-25.6 16-10 2-18.9-.7-25.5-6.1-6.8-5.6-10.6-14.2-10.7-23.8v-57.6c24.2-3.8 48.4-8.7 72.5-13.9z" fill="#f00" stroke-miterlimit="4.3" stroke-width=".5"/></g><path d="m202.9 244.2c.1-5.9 4.3-7.8 4.3-7.8.1 0 4.6.8 4.6 6.7-3 .4-5.9.8-8.9 1.1z" fill="#ff0"/><path d="m199.3 237.5c-.2 2.3-.5 4.5-.7 6.8 1.5-.2 3-.4 4.5-.6 0-5.5 4.3-7 4.3-7 .1 0 4.3.6 4.4 5.8 1.5-.2 3-.4 4.5-.7-.3-2.2-.6-4.5-.9-6.7-5.3.8-10.7 1.6-16 2.4zm-1.1 7c6-.8 12.1-1.6 18.1-2.6.4 0 .6.2.6.6 0 .6-.2.9-.6 1-6 .9-12.1 1.8-18.1 2.6-.4 0-.6-.2-.6-.8 0-.5.2-.8.7-.8 0 0 0 0-.1 0z" fill="#ff0" stroke="#000" stroke-miterlimit="4.3" stroke-width=".5"/><path d="m204.8 243.5c0-3.5 2.5-4.8 2.5-4.8s2.5.7 2.5 4.1c-1.6.2-3.3.5-4.9.7m-6.3-8.8c5.8-.7 11.6-1.6 17.4-2.5.4 0 .6.3.6.8 0 .4-.2.6-.6.7-5.8.9-11.6 1.7-17.4 2.5-.4 0-.6-.2-.6-.7 0-.4.2-.6.6-.7zm.4 1.6c5.5-.7 11-1.5 16.4-2.3.4 0 .6.2.6.6 0 .5-.1.8-.6.8-5.5.8-11 1.6-16.5 2.3-.4 0-.6-.2-.6-.7s.2-.8.6-.8h.1zm5.4-12c.4 0 .9-.1 1.3-.2v.9c.3 0 .6 0 1-.1 0-.3 0-.6 0-.9.5 0 .9-.1 1.4-.2v1c.3 0 .6 0 1-.1v-1.1c.4 0 .9-.1 1.3-.2v2.1c0 .4-.2.7-.5.7-1.6.2-3.1.4-4.7.7-.4 0-.6 0-.6-.4 0-.7 0-1.4 0-2.1zm4.9 2.2c.1 2.3.2 4.5.3 6.8-1.5.2-3.1.4-4.6.6.1-2.3.2-4.7.3-7 1.3-.2 2.6-.4 3.9-.6" fill="#ff0" stroke="#000" stroke-miterlimit="4.3" stroke-width=".5"/><path d="m203.7 230.4v3.6c-1.4.2-2.8.4-4.3.6v-3.6c1.4-.2 2.8-.4 4.3-.6z" fill="#ff0" stroke="#000" stroke-miterlimit="4.3" stroke-width=".5"/><path d="m215 228.8v3.6c-1.4.2-2.8.4-4.3.6v-3.6c1.4-.2 2.8-.4 4.3-.6z" fill="#ff0" stroke="#000" stroke-miterlimit="4.3" stroke-width=".5"/><path d="m198.7 228.3c.4 0 .9-.1 1.3-.2v1.1c.3 0 .6 0 1-.1v-1.1c.4 0 .9-.1 1.3-.2v1.1c.3 0 .6 0 1-.1v-1.1c.4 0 .9-.1 1.3-.2v2.1c0 .4-.2.7-.5.7-1.5.2-3.1.4-4.6.6-.3 0-.5-.3-.6-.6 0-.7 0-1.4 0-2.1z" fill="#ff0" stroke="#000" stroke-miterlimit="4.3" stroke-width=".5"/><path d="m210 226.8c.4 0 .9-.1 1.3-.2v1.1c.3 0 .6 0 1-.1v-1.1c.4 0 .9-.1 1.3-.2v1.1c.3 0 .6 0 1-.1 0-.4 0-.7 0-1.1.4 0 .9-.1 1.3-.2v2.1c0 .4-.2.7-.5.7-1.5.2-3.1.5-4.6.7-.3 0-.5-.3-.6-.5 0-.7 0-1.4 0-2.1z" fill="#ff0" stroke="#000" stroke-miterlimit="4.3" stroke-width=".5"/><path d="m206.8 229c0-.6 1-.8 1-.1v1.7c-.3 0-.6 0-1 .1 0-.6 0-1.1 0-1.7z" fill="#000001"/><path d="m201.2 232.1c0-.6.9-.8.9-.1v1.3c-.3 0-.6 0-.9.1 0-.4 0-.9 0-1.3z" fill="#000001"/><path d="m212.5 230.5c0-.6.9-.8.9-.1v1.3c-.3 0-.6 0-.9.1 0-.4 0-.9 0-1.3z" fill="#000001"/><path d="m202.9 293.6c.1-5.9 4.3-7.8 4.3-7.8.1 0 4.6.8 4.6 6.7-3 .4-5.9.8-8.9 1.1z" fill="#ff0"/><path d="m199.3 286.9c-.2 2.3-.5 4.5-.7 6.8 1.5-.2 3-.4 4.5-.6 0-5.5 4.3-7 4.3-7 .1 0 4.3.6 4.4 5.8 1.5-.2 3-.4 4.5-.7-.3-2.2-.6-4.5-.9-6.7-5.3.8-10.7 1.6-16 2.4zm-1.1 7c6-.8 12.1-1.6 18.1-2.6.4 0 .6.2.6.6 0 .6-.2.9-.6 1-6 .9-12.1 1.8-18.1 2.6-.4 0-.6-.2-.6-.8 0-.5.2-.8.7-.8 0 0 0 0-.1 0z" fill="#ff0" stroke="#000" stroke-miterlimit="4.3" stroke-width=".5"/><path d="m204.8 292.9c0-3.5 2.5-4.8 2.5-4.8s2.5.7 2.5 4.1c-1.6.2-3.3.5-4.9.7m-6.3-8.8c5.8-.7 11.6-1.6 17.4-2.5.4 0 .6.3.6.8 0 .4-.2.6-.6.7-5.8.9-11.6 1.7-17.4 2.5-.4 0-.6-.2-.6-.7 0-.4.2-.6.6-.7zm.4 1.6c5.5-.7 11-1.5 16.4-2.3.4 0 .6.2.6.6 0 .5-.1.8-.6.8-5.5.8-11 1.6-16.5 2.3-.4 0-.6-.2-.6-.7s.2-.8.6-.8h.1zm5.4-12c.4 0 .9-.1 1.3-.2v.9c.3 0 .6 0 1-.1 0-.3 0-.6 0-.9.5 0 .9-.1 1.4-.2v1c.3 0 .6 0 1-.1v-1.1c.4 0 .9-.1 1.3-.2v2.1c0 .4-.2.7-.5.7-1.6.2-3.1.4-4.7.7-.4 0-.6 0-.6-.4 0-.7 0-1.4 0-2.1zm4.9 2.2c.1 2.3.2 4.5.3 6.8-1.5.2-3.1.4-4.6.6.1-2.3.2-4.7.3-7 1.3-.2 2.6-.4 3.9-.6" fill="#ff0" stroke="#000" stroke-miterlimit="4.3" stroke-width=".5"/><path d="m203.7 279.8v3.6c-1.4.2-2.8.4-4.3.6v-3.6c1.4-.2 2.8-.4 4.3-.6z" fill="#ff0" stroke="#000" stroke-miterlimit="4.3" stroke-width=".5"/><path d="m215 278.2v3.6c-1.4.2-2.8.4-4.3.6v-3.6c1.4-.2 2.8-.4 4.3-.6z" fill="#ff0" stroke="#000" stroke-miterlimit="4.3" stroke-width=".5"/><path d="m198.7 277.7c.4 0 .9-.1 1.3-.2v1.1c.3 0 .6 0 1-.1v-1.1c.4 0 .9-.1 1.3-.2v1.1c.3 0 .6 0 1-.1v-1.1c.4 0 .9-.1 1.3-.2v2.1c0 .4-.2.7-.5.7-1.5.2-3.1.4-4.6.6-.3 0-.5-.3-.6-.6 0-.7 0-1.4 0-2.1z" fill="#ff0" stroke="#000" stroke-miterlimit="4.3" stroke-width=".5"/><path d="m210 276.2c.4 0 .9-.1 1.3-.2v1.1c.3 0 .6 0 1-.1v-1.1c.4 0 .9-.1 1.3-.2v1.1c.3 0 .6 0 1-.1 0-.4 0-.7 0-1.1.4 0 .9-.1 1.3-.2v2.1c0 .4-.2.7-.5.7-1.5.2-3.1.5-4.6.7-.3 0-.5-.3-.6-.5 0-.7 0-1.4 0-2.1z" fill="#ff0" stroke="#000" stroke-miterlimit="4.3" stroke-width=".5"/><path d="m206.8 278.3c0-.6 1-.8 1-.1v1.7c-.3 0-.6 0-1 .1 0-.6 0-1.1 0-1.7z" fill="#000001"/><path d="m201.2 281.5c0-.6.9-.8.9-.1v1.3c-.3 0-.6 0-.9.1 0-.4 0-.9 0-1.3z" fill="#000001"/><path d="m212.5 279.9c0-.6.9-.8.9-.1v1.3c-.3 0-.6 0-.9.1 0-.4 0-.9 0-1.3z" fill="#000001"/><path d="m222.1 342.2c-4.1-3.6-2.1-7.8-2.1-7.8s4.3-2.9 8.5.5c-2.1 2.4-4.2 4.8-6.3 7.3z" fill="#ff0"/><path d="m214.5 340.9c1.4 1.5 2.8 3.1 4.2 4.6 1.1-1.2 2.1-2.5 3.2-3.7-3.9-3.3-1.5-7.3-1.5-7.3s3.8-2.8 7.6.2c1.1-1.2 2.1-2.5 3.2-3.7-1.8-1.1-3.6-2.2-5.4-3.3-3.7 4.4-7.5 8.8-11.2 13.2zm4.1 5c4.3-5 8.5-10 12.8-15 .3-.3.6-.3 1 0s.5.7.2 1c-4.3 5-8.5 10-12.8 15-.3.3-.6.3-1.1 0-.4-.3-.4-.6 0-1.1z" fill="#ff0" stroke="#000" stroke-miterlimit="4.3" stroke-width=".5"/><path d="m223.2 340.4c-2.5-2.1-1.5-4.7-1.5-4.7s2.5-1.4 4.9.6c-1.2 1.4-2.3 2.7-3.5 4.1m-11.1-.7c4.1-4.7 8.2-9.5 12.3-14.3.3-.3.7-.3 1.1 0 .3.2.3.5 0 .9-4.1 4.8-8.2 9.5-12.3 14.3-.3.3-.6.3-1 0-.3-.2-.3-.5 0-.9zm1.4.7c3.9-4.5 7.7-9 11.6-13.5.3-.3.6-.3 1 0 .4.2.4.6 0 1-3.9 4.6-7.8 9.1-11.6 13.6-.3.3-.6.4-1 0-.4-.3-.4-.6 0-1zm-4.2-11.2c.3-.3.6-.7.9-1 .2.2.4.3.6.5.2-.3.5-.5.7-.8-.2-.2-.4-.3-.6-.5.3-.4.7-.8 1-1.1.2.2.5.4.7.6.2-.3.5-.5.7-.8-.3-.2-.5-.4-.8-.6.3-.3.6-.7.9-1 .5.4 1 .9 1.5 1.3.3.3.3.5 0 .8-1.1 1.3-2.2 2.6-3.3 3.8-.3.3-.5.4-.8.2-.5-.4-1-.9-1.5-1.3zm5.5-2.2c1.7 1.3 3.4 2.5 5.1 3.8-1.1 1.3-2.2 2.5-3.2 3.8-1.6-1.5-3.1-2.9-4.7-4.4.9-1.1 1.9-2.1 2.8-3.2" fill="#ff0" stroke="#000" stroke-miterlimit="4.3" stroke-width=".5"/><path d="m213 333.4c.9.7 1.7 1.4 2.6 2.2-1 1.2-2 2.3-3 3.5-.9-.7-1.7-1.4-2.6-2.2 1-1.2 2-2.3 3-3.5z" fill="#ff0" stroke="#000" stroke-miterlimit="4.3" stroke-width=".5"/><path d="m221 324.1c.9.7 1.7 1.4 2.6 2.1-1 1.2-2 2.3-3 3.5-.9-.7-1.7-1.4-2.6-2.1 1-1.2 2-2.3 3-3.5z" fill="#ff0" stroke="#000" stroke-miterlimit="4.3" stroke-width=".5"/><path d="m207.5 335.8c.3-.3.6-.7.9-1 .3.2.5.4.8.6.2-.3.5-.5.7-.8-.3-.2-.5-.4-.8-.6.3-.3.6-.7.9-1 .3.2.5.4.8.6.2-.3.5-.5.7-.8-.3-.2-.5-.4-.8-.6.3-.3.6-.7.9-1 .5.4 1 .9 1.5 1.3.3.3.3.5 0 .8-1.1 1.2-2.2 2.5-3.2 3.7-.3.2-.6.2-.9.1-.5-.4-1-.9-1.5-1.3z" fill="#ff0" stroke="#000" stroke-miterlimit="4.3" stroke-width=".5"/><path d="m215.5 326.6c.3-.3.6-.7.9-1 .3.2.5.4.8.6.2-.3.5-.5.7-.8-.3-.2-.5-.4-.8-.6.3-.3.6-.7.9-1 .3.2.5.4.8.6.2-.3.5-.5.7-.8-.3-.2-.5-.4-.8-.6.3-.4.6-.7.9-1.1.5.4 1 .8 1.5 1.3.3.3.3.5 0 .8-1.1 1.3-2.2 2.5-3.2 3.8-.3.2-.6.2-.9.1-.5-.4-1-.8-1.5-1.3z" fill="#ff0" stroke="#000" stroke-miterlimit="4.3" stroke-width=".5"/><path d="m214.5 330.2c-.5-.4.2-1.2.7-.8.4.3.8.7 1.2 1-.2.3-.5.5-.7.8-.4-.3-.8-.7-1.2-1z" fill="#000001"/><path d="m212.1 336.3c-.5-.4.1-1.1.6-.7.3.3.6.5.9.8-.2.2-.4.5-.6.7-.3-.3-.6-.5-.9-.8z" fill="#000001"/><path d="m220.1 327c-.5-.4.1-1.1.6-.7.3.3.6.5.9.8-.2.2-.4.5-.6.7-.3-.3-.6-.5-.9-.8z" fill="#000001"/><path d="m251.6 236.1c.1-5.9 4.3-8.1 4.3-8.1.1 0 4.6.6 4.6 6.4-3 .6-5.9 1.1-8.9 1.6z" fill="#ff0"/><path d="m248 229.6c-.2 2.3-.5 4.6-.7 6.9l4.5-.9c0-5.5 4.3-7.2 4.3-7.2.1 0 4.3.3 4.4 5.5 1.5-.3 3-.6 4.5-.9-.3-2.2-.6-4.4-.9-6.7-5.3 1.1-10.7 2.2-16 3.3zm-1.1 7.1c6-1.1 12.1-2.3 18.1-3.6.4 0 .6.1.6.6 0 .6-.2.9-.6 1-6 1.2-12.1 2.4-18.1 3.6-.4 0-.6-.2-.6-.7s.2-.8.7-.9c0 0 0 0-.1 0z" fill="#ff0" stroke="#000" stroke-miterlimit="4.3" stroke-width=".5"/><path d="m253.5 235.3c0-3.5 2.5-5 2.5-5s2.5.6 2.5 4c-1.6.3-3.3.7-4.9 1m-6.2-8.4c5.8-1.1 11.6-2.3 17.4-3.4.4 0 .6.2.6.7 0 .4-.2.6-.6.8-5.8 1.2-11.6 2.3-17.4 3.4-.4 0-.6-.1-.6-.6 0-.4.2-.6.6-.8zm.4 1.5c5.5-1 11-2.1 16.4-3.3.4 0 .6.1.6.6s-.1.8-.6.9c-5.5 1.1-11 2.2-16.5 3.3-.4 0-.6-.1-.6-.6s.2-.8.6-.9zm5.3-12.3c.4 0 .9-.2 1.3-.3v.9c.3 0 .6-.1 1-.2v-.9c.5 0 .9-.2 1.4-.3v1c.3 0 .6-.1 1-.2v-1.1c.4 0 .9-.2 1.3-.3v2.1c0 .4-.2.7-.5.7-1.6.3-3.1.6-4.7.9-.4 0-.6 0-.6-.4v-2.1zm4.9 1.9c.1 2.3.2 4.5.3 6.8-1.5.3-3.1.6-4.6.9.1-2.3.2-4.7.3-7 1.3-.3 2.6-.5 3.9-.8" fill="#ff0" stroke="#000" stroke-miterlimit="4.3" stroke-width=".5"/><path d="m252.5 222.3v3.6c-1.4.3-2.8.6-4.3.8 0-1.2 0-2.4 0-3.6 1.4-.3 2.8-.5 4.3-.8z" fill="#ff0" stroke="#000" stroke-miterlimit="4.3" stroke-width=".5"/><path d="m263.8 220v3.6c-1.4.3-2.8.6-4.3.9v-3.6c1.4-.3 2.8-.6 4.3-.9z" fill="#ff0" stroke="#000" stroke-miterlimit="4.3" stroke-width=".5"/><path d="m247.5 220.4c.4 0 .9-.2 1.3-.2v1.1c.3 0 .6-.1 1-.2 0-.4 0-.7 0-1.1.4 0 .9-.2 1.3-.2v1.1c.3 0 .6-.1 1-.2 0-.4 0-.7 0-1.1.4 0 .9-.2 1.3-.2v2.1c0 .4-.2.7-.5.7-1.5.3-3.1.6-4.6.9-.3 0-.5-.2-.6-.5 0-.7 0-1.4 0-2.1z" fill="#ff0" stroke="#000" stroke-miterlimit="4.3" stroke-width=".5"/><path d="m258.8 218.2c.4 0 .9-.2 1.3-.3v1.1c.3 0 .6-.1 1-.2v-1.1c.4 0 .9-.2 1.3-.3v1.1c.3 0 .6-.1 1-.2v-1.1c.4 0 .9-.2 1.3-.3v2.1c0 .4-.2.7-.5.7-1.5.3-3.1.6-4.6.9-.3 0-.5-.2-.6-.5 0-.7 0-1.4 0-2.1z" fill="#ff0" stroke="#000" stroke-miterlimit="4.3" stroke-width=".5"/><path d="m255.6 220.6c0-.6 1-.8 1-.2v1.7c-.3 0-.6.1-1 .2z" fill="#000001"/><path d="m249.9 224c0-.6.9-.8.9-.2v1.3c-.3 0-.6.1-.9.2 0-.4 0-.9 0-1.3z" fill="#000001"/><path d="m261.2 221.8c0-.6.9-.8.9-.2v1.3c-.3 0-.6.1-.9.2z" fill="#000001"/><path d="m308.9 223.9c-.1-5.8-4.3-6.3-4.3-6.3-.1 0-4.6 2.5-4.6 8.4 3-.7 5.9-1.4 8.9-2.1z" fill="#ff0"/><path d="m312.5 215.9c.2 2.2.5 4.4.7 6.6-1.5.3-3 .7-4.5 1 0-5.5-4.3-5.4-4.3-5.4-.1 0-4.3 2.1-4.4 7.4-1.5.3-3 .7-4.5 1 .3-2.3.6-4.7.9-7 5.3-1.1 10.7-2.3 16-3.5zm1.1 6.6c-6 1.4-12.1 2.7-18.1 4-.4 0-.6.4-.6.9 0 .6.2.8.6.7 6-1.3 12.1-2.7 18.1-4 .4 0 .6-.4.6-1 0-.5-.2-.7-.7-.6z" fill="#ff0" stroke="#000" stroke-miterlimit="4.3" stroke-width=".5"/><path d="m307 223.9c0-3.5-2.5-3.9-2.5-3.9s-2.5 1.6-2.5 5c1.6-.4 3.3-.7 4.9-1.1m6.3-11c-5.8 1.3-11.6 2.6-17.4 3.9-.4.1-.6.5-.6 1 0 .4.2.5.6.5 5.8-1.3 11.6-2.6 17.4-3.9.4 0 .6-.4.6-.9 0-.4-.2-.5-.6-.5zm-.5 1.7c-5.5 1.2-11 2.5-16.4 3.7-.4 0-.6.4-.6.9s.1.7.6.6c5.5-1.2 11-2.5 16.5-3.7.4 0 .6-.4.6-.9s-.2-.7-.6-.6c0 0 0 0-.1 0zm-5.3-10.1c-.4 0-.9.2-1.3.3v.9c-.3 0-.6.1-1 .2v-.9c-.5.1-.9.2-1.4.3v1c-.3 0-.6.1-1 .2v-1.1c-.4 0-.9.2-1.3.3v2.1c0 .4.2.6.5.5 1.6-.3 3.1-.7 4.7-1 .4 0 .6-.3.6-.7v-2.1zm-4.9 4c-.1 2.3-.2 4.6-.3 6.9 1.5-.3 3.1-.7 4.6-1-.1-2.3-.2-4.6-.3-6.9-1.3.3-2.6.6-3.9.9" fill="#ff0" stroke="#000" stroke-miterlimit="4.3" stroke-width=".5"/><path d="m308.1 210.4v3.6c1.4-.3 2.8-.6 4.3-1v-3.6c-1.4.3-2.8.6-4.3 1z" fill="#ff0" stroke="#000" stroke-miterlimit="4.3" stroke-width=".5"/><path d="m296.7 212.9v3.6c1.4-.3 2.8-.6 4.3-.9v-3.6c-1.4.3-2.8.6-4.3.9z" fill="#ff0" stroke="#000" stroke-miterlimit="4.3" stroke-width=".5"/><path d="m313.1 206.5c-.4 0-.9.2-1.3.3v1.1c-.3 0-.6.1-1 .2v-1.1c-.4 0-.9.2-1.3.3v1.1c-.3 0-.6.1-1 .2v-1.1c-.4 0-.9.2-1.3.3v2.1c0 .4.2.6.5.5 1.5-.3 3.1-.7 4.6-1 .3-.2.5-.5.6-.8 0-.7 0-1.4 0-2.1z" fill="#ff0" stroke="#000" stroke-miterlimit="4.3" stroke-width=".5"/><path d="m301.8 209.1c-.4 0-.9.2-1.3.3v1.1c-.3 0-.6.1-1 .2v-1.1c-.4 0-.9.2-1.3.3v1.1c-.3 0-.6.1-1 .2v-1.1c-.4 0-.9.2-1.3.3v2.1c0 .4.2.6.5.5 1.5-.3 3.1-.7 4.6-1 .3-.2.5-.5.6-.8 0-.7 0-1.4 0-2.1z" fill="#ff0" stroke="#000" stroke-miterlimit="4.3" stroke-width=".5"/><path d="m305 210.1c0-.6-1-.4-1 .2v1.7c.3 0 .6-.1 1-.2z" fill="#000001"/><path d="m310.6 211.1c0-.6-.9-.4-.9.2v1.3c.3 0 .6-.1.9-.2 0-.4 0-.9 0-1.3z" fill="#000001"/><path d="m299.3 213.7c0-.6-.9-.5-.9.2v1.3c.3 0 .6-.1.9-.2z" fill="#000001"/><path d="m308.9 273.3c-.1-5.8-4.3-6.3-4.3-6.3-.1 0-4.6 2.5-4.6 8.4 3-.7 5.9-1.4 8.9-2.1z" fill="#ff0"/><path d="m312.5 265.3c.2 2.2.5 4.4.7 6.6-1.5.3-3 .7-4.5 1 0-5.5-4.3-5.4-4.3-5.4-.1 0-4.3 2.1-4.4 7.4-1.5.3-3 .7-4.5 1 .3-2.3.6-4.7.9-7 5.3-1.1 10.7-2.3 16-3.5zm1.1 6.6c-6 1.4-12.1 2.7-18.1 4-.4 0-.6.4-.6.9 0 .6.2.8.6.7 6-1.3 12.1-2.7 18.1-4 .4 0 .6-.4.6-1 0-.5-.2-.7-.7-.6z" fill="#ff0" stroke="#000" stroke-miterlimit="4.3" stroke-width=".5"/><path d="m307 273.3c0-3.5-2.5-3.9-2.5-3.9s-2.5 1.6-2.5 5c1.6-.4 3.3-.7 4.9-1.1m6.3-11c-5.8 1.3-11.6 2.6-17.4 3.9-.4.1-.6.5-.6 1 0 .4.2.5.6.5l17.4-3.9c.4 0 .6-.4.6-.9 0-.4-.2-.5-.6-.5zm-.5 1.7c-5.5 1.2-11 2.5-16.4 3.7-.4 0-.6.4-.6.9s.1.7.6.6c5.5-1.2 11-2.5 16.5-3.7.4 0 .6-.4.6-.9s-.2-.7-.6-.6c0 0 0 0-.1 0zm-5.3-10.1c-.4 0-.9.2-1.3.3v.9c-.3 0-.6.1-1 .2v-.9c-.5.1-.9.2-1.4.3v1c-.3 0-.6.1-1 .2v-1.1c-.4 0-.9.2-1.3.3v2.1c0 .4.2.6.5.5 1.6-.3 3.1-.7 4.7-1 .4 0 .6-.3.6-.7v-2.1zm-4.9 4c-.1 2.3-.2 4.6-.3 6.9 1.5-.3 3.1-.7 4.6-1-.1-2.3-.2-4.6-.3-6.9-1.3.3-2.6.6-3.9.9" fill="#ff0" stroke="#000" stroke-miterlimit="4.3" stroke-width=".5"/><path d="m308.1 259.8v3.6c1.4-.3 2.8-.6 4.3-1v-3.6c-1.4.3-2.8.6-4.3 1z" fill="#ff0" stroke="#000" stroke-miterlimit="4.3" stroke-width=".5"/><path d="m296.7 262.3v3.6c1.4-.3 2.8-.6 4.3-.9v-3.6c-1.4.3-2.8.6-4.3.9z" fill="#ff0" stroke="#000" stroke-miterlimit="4.3" stroke-width=".5"/><path d="m313.1 255.9c-.4 0-.9.2-1.3.3v1.1c-.3 0-.6.1-1 .2v-1.1c-.4 0-.9.2-1.3.3v1.1c-.3 0-.6.1-1 .2v-1.1c-.4 0-.9.2-1.3.3v2.1c0 .4.2.6.5.5 1.5-.3 3.1-.7 4.6-1 .3-.2.5-.5.6-.8 0-.7 0-1.4 0-2.1z" fill="#ff0" stroke="#000" stroke-miterlimit="4.3" stroke-width=".5"/><path d="m301.8 258.4c-.4 0-.9.2-1.3.3v1.1c-.3 0-.6.1-1 .2v-1.1c-.4 0-.9.2-1.3.3v1.1c-.3 0-.6.1-1 .2v-1.1c-.4 0-.9.2-1.3.3v2.1c0 .4.2.6.5.5 1.5-.3 3.1-.7 4.6-1 .3-.2.5-.5.6-.8 0-.7 0-1.4 0-2.1z" fill="#ff0" stroke="#000" stroke-miterlimit="4.3" stroke-width=".5"/><path d="m305 259.4c0-.6-1-.4-1 .2v1.7c.3 0 .6-.1 1-.2z" fill="#000001"/><path d="m310.6 260.5c0-.6-.9-.4-.9.2v1.3c.3 0 .6-.1.9-.2 0-.4 0-.9 0-1.3z" fill="#000001"/><path d="m299.3 263c0-.6-.9-.5-.9.2v1.3c.3 0 .6-.1.9-.2z" fill="#000001"/><path d="m289.7 329c4.1-5.1 2.1-8.6 2.1-8.6s-4.3-1.3-8.5 3.8l6.3 4.8z" fill="#ff0"/><path d="m297.3 324.9c-1.4 2.1-2.8 4.1-4.2 6.2-1.1-.8-2.1-1.7-3.2-2.5 3.9-4.8 1.5-7.9 1.5-7.9s-3.8-1.4-7.6 3.1c-1.1-.8-2.1-1.7-3.2-2.5 1.8-1.8 3.6-3.6 5.4-5.4 3.7 3 7.5 6 11.2 9zm-4.1 6.4c-4.3-3.4-8.5-6.7-12.8-10.1-.3-.2-.6-.1-1 .3-.4.5-.5.9-.2 1.1 4.3 3.4 8.5 6.7 12.8 10.1.3.2.6 0 1.1-.4.4-.4.4-.8 0-1.1z" fill="#ff0" stroke="#000" stroke-miterlimit="4.3" stroke-width=".5"/><path d="m288.6 327.6c2.5-3 1.5-5.2 1.5-5.2s-2.5-.4-4.9 2.5c1.2.9 2.3 1.8 3.5 2.7m11.1-4.9c-4.1-3.2-8.2-6.4-12.3-9.6-.3-.1-.7 0-1.1.4-.3.3-.3.6 0 .9 4.1 3.2 8.2 6.4 12.3 9.6.3.2.6.1 1-.3.3-.3.3-.6 0-.9zm-1.5 1.2c-3.9-3-7.7-6.1-11.6-9.1-.3-.2-.6-.1-1 .3s-.4.7 0 1c3.9 3.1 7.8 6.1 11.7 9.2.3.2.6.1 1-.3s.4-.8 0-1zm4.3-12.7c-.3-.2-.6-.5-.9-.7-.2.2-.4.5-.6.7-.2-.2-.5-.4-.7-.5.2-.2.4-.5.6-.7-.3-.3-.7-.5-1-.8-.2.3-.5.6-.7.8-.2-.2-.5-.4-.7-.5.3-.3.5-.6.8-.9-.3-.2-.6-.5-.9-.7-.5.6-1 1.2-1.5 1.8-.3.4-.3.7 0 .8 1.1.9 2.2 1.7 3.3 2.6.3.2.5.2.8-.1.5-.6 1-1.2 1.5-1.8zm-5.5-.2c-1.7 1.9-3.4 3.8-5.1 5.7 1.1.8 2.2 1.7 3.2 2.5 1.6-2 3.1-4.1 4.7-6.2-.9-.7-1.9-1.5-2.8-2.2" fill="#ff0" stroke="#000" stroke-miterlimit="4.3" stroke-width=".5"/><path d="m298.7 316.8c-.9 1-1.7 2.1-2.6 3.1 1 .8 2 1.6 3 2.4.9-1 1.7-2.1 2.6-3.1-1-.8-2-1.6-3-2.4z" fill="#ff0" stroke="#000" stroke-miterlimit="4.3" stroke-width=".5"/><path d="m290.8 310.5c-.9 1-1.7 2.1-2.6 3.1l3 2.4c.9-1 1.7-2.1 2.6-3.1-1-.8-2-1.6-3-2.4z" fill="#ff0" stroke="#000" stroke-miterlimit="4.3" stroke-width=".5"/><path d="m304.2 317.2c-.3-.2-.6-.5-.9-.7-.3.3-.5.6-.8.9-.2-.2-.5-.4-.7-.5.3-.3.5-.6.8-.9-.3-.2-.6-.5-.9-.7-.3.3-.5.6-.8.9-.2-.2-.5-.4-.7-.5.3-.3.5-.6.8-.9-.3-.2-.6-.5-.9-.7-.5.6-1 1.2-1.5 1.8-.3.4-.3.6 0 .8 1.1.8 2.2 1.7 3.2 2.5.3 0 .6 0 .9-.2.5-.6 1-1.2 1.5-1.8z" fill="#ff0" stroke="#000" stroke-miterlimit="4.3" stroke-width=".5"/><path d="m296.3 310.9c-.3-.2-.6-.5-.9-.7-.3.3-.5.6-.8.9-.2-.2-.5-.4-.7-.5.3-.3.5-.6.8-.9-.3-.2-.6-.5-.9-.7-.3.3-.5.6-.8.9-.2-.2-.5-.4-.7-.5.3-.3.5-.6.8-.9-.3-.2-.6-.5-.9-.7-.5.6-1 1.2-1.5 1.8-.3.4-.3.6 0 .8 1.1.8 2.2 1.7 3.2 2.5.3 0 .6 0 .9-.2.5-.6 1-1.2 1.5-1.8z" fill="#ff0" stroke="#000" stroke-miterlimit="4.3" stroke-width=".5"/><path d="m297.3 314.2c.5-.6-.2-1.1-.7-.5-.4.5-.8 1-1.2 1.5.2.2.5.4.7.5.4-.5.8-1 1.2-1.5z" fill="#000001"/><path d="m299.6 319.3c.5-.6-.1-1-.6-.5-.3.4-.6.7-.9 1.1.2.2.4.3.6.5.3-.4.6-.7.9-1.1z" fill="#000001"/><path d="m291.7 313c.5-.6-.1-1-.6-.5-.3.4-.6.7-.9 1.1.2.2.4.3.6.5.3-.4.6-.7.9-1.1z" fill="#000001"/><path d="m248.1 288c0 2.3.8 4.3 2.3 5.6 1.4 1.4 3.5 1.9 5.7 1.5 2.3-.6 4.2-1.8 5.7-3.7 1.6-2 2.4-4.3 2.3-6.6v-11.5c-5.3 1.1-10.7 2.1-16 3.2z" fill="#039"/><path d="m251.8 278.5c.9-.2 1.6.4 1.6 1.3s-.7 1.7-1.6 1.9-1.6-.4-1.6-1.3.7-1.7 1.6-1.9z" fill="#fff"/><path d="m260.7 276.7c.9-.2 1.6.4 1.6 1.3s-.7 1.7-1.6 1.9-1.6-.4-1.6-1.3.7-1.7 1.6-1.9z" fill="#fff"/><path d="m256.2 281.9c.9-.2 1.6.4 1.6 1.3s-.7 1.7-1.6 1.9-1.6-.4-1.6-1.3.7-1.7 1.6-1.9z" fill="#fff"/><path d="m251.8 287.2c.9-.2 1.6.4 1.6 1.3s-.7 1.7-1.6 1.9-1.6-.4-1.6-1.3.7-1.7 1.6-1.9z" fill="#fff"/><path d="m260.7 285.5c.9-.2 1.6.4 1.6 1.3s-.7 1.7-1.6 1.9-1.6-.4-1.6-1.3.7-1.7 1.6-1.9z" fill="#fff"/><path d="m248.1 260.2c0 2.3.8 4.3 2.3 5.6 1.4 1.4 3.5 1.9 5.7 1.5 2.3-.6 4.2-1.8 5.7-3.7 1.6-2 2.4-4.3 2.3-6.6v-11.5c-5.3 1.1-10.7 2.1-16 3.2z" fill="#039"/><path d="m251.8 250.8c.9-.2 1.6.4 1.6 1.3s-.7 1.7-1.6 1.9-1.6-.4-1.6-1.3.7-1.7 1.6-1.9z" fill="#fff"/><path d="m260.7 249c.9-.2 1.6.4 1.6 1.3s-.7 1.7-1.6 1.9-1.6-.4-1.6-1.3.7-1.7 1.6-1.9z" fill="#fff"/><path d="m256.2 254.2c.9-.2 1.6.4 1.6 1.3s-.7 1.7-1.6 1.9-1.6-.4-1.6-1.3.7-1.7 1.6-1.9z" fill="#fff"/><path d="m251.8 259.5c.9-.2 1.6.4 1.6 1.3s-.7 1.7-1.6 1.9-1.6-.4-1.6-1.3.7-1.7 1.6-1.9z" fill="#fff"/><path d="m260.7 257.7c.9-.2 1.6.4 1.6 1.3s-.7 1.7-1.6 1.9-1.6-.4-1.6-1.3.7-1.7 1.6-1.9z" fill="#fff"/><path d="m225.9 291.9c0 2.3.8 4.3 2.3 5.7 1.4 1.4 3.5 2 5.7 1.6 2.3-.5 4.2-1.7 5.7-3.6 1.6-1.9 2.4-4.3 2.3-6.5v-11.5c-5.3 1-10.7 1.9-16 2.8z" fill="#039"/><path d="m229.7 282.6c.9-.2 1.6.4 1.6 1.3s-.7 1.7-1.6 1.9-1.6-.4-1.6-1.3.7-1.7 1.6-1.9z" fill="#fff"/><path d="m238.5 281c.9-.2 1.6.4 1.6 1.3s-.7 1.7-1.6 1.9-1.6-.4-1.6-1.3.7-1.7 1.6-1.9z" fill="#fff"/><path d="m234 286.1c.9-.2 1.6.4 1.6 1.3s-.7 1.7-1.6 1.9-1.6-.4-1.6-1.3.7-1.7 1.6-1.9z" fill="#fff"/><path d="m229.7 291.3c.9-.2 1.6.4 1.6 1.3s-.7 1.7-1.6 1.9-1.6-.4-1.6-1.3.7-1.7 1.6-1.9z" fill="#fff"/><path d="m238.5 289.7c.9-.2 1.6.4 1.6 1.3s-.7 1.7-1.6 1.9-1.6-.4-1.6-1.3.7-1.7 1.6-1.9z" fill="#fff"/><path d="m270.3 283.5c0 2.3.8 4.3 2.3 5.6 1.4 1.3 3.5 1.8 5.7 1.4 2.3-.6 4.2-1.9 5.7-3.8 1.6-2 2.4-4.3 2.3-6.6v-11.5c-5.3 1.2-10.7 2.3-16 3.4z" fill="#039"/><path d="m274 274c.9-.2 1.6.4 1.6 1.3s-.7 1.8-1.6 1.9c-.9.2-1.6-.4-1.6-1.3s.7-1.8 1.6-1.9z" fill="#fff"/><path d="m282.9 272.1c.9-.2 1.6.4 1.6 1.3s-.7 1.8-1.6 1.9c-.9.2-1.6-.4-1.6-1.3s.7-1.8 1.6-1.9z" fill="#fff"/><path d="m278.4 277.3c.9-.2 1.6.4 1.6 1.3s-.7 1.8-1.6 1.9c-.9.2-1.6-.4-1.6-1.3s.7-1.8 1.6-1.9z" fill="#fff"/><path d="m274 282.7c.9-.2 1.6.4 1.6 1.3s-.7 1.8-1.6 1.9c-.9.2-1.6-.4-1.6-1.3s.7-1.8 1.6-1.9z" fill="#fff"/><path d="m282.9 280.8c.9-.2 1.6.4 1.6 1.3s-.7 1.8-1.6 1.9c-.9.2-1.6-.4-1.6-1.3s.7-1.8 1.6-1.9z" fill="#fff"/><path d="m248.1 315.5c0 2.3.8 4.3 2.3 5.6 1.4 1.4 3.5 1.9 5.7 1.5 2.3-.6 4.2-1.8 5.7-3.7 1.6-2 2.4-4.3 2.3-6.6v-11.5c-5.3 1.1-10.7 2.1-16 3.2z" fill="#039"/><path d="m251.8 306c.9-.2 1.6.4 1.6 1.3s-.7 1.7-1.6 1.9-1.6-.4-1.6-1.3.7-1.7 1.6-1.9z" fill="#fff"/><path d="m260.7 304.3c.9-.2 1.6.4 1.6 1.3s-.7 1.7-1.6 1.9-1.6-.4-1.6-1.3.7-1.7 1.6-1.9z" fill="#fff"/><path d="m256.2 309.4c.9-.2 1.6.4 1.6 1.3s-.7 1.7-1.6 1.9-1.6-.4-1.6-1.3.7-1.7 1.6-1.9z" fill="#fff"/><path d="m251.8 314.8c.9-.2 1.6.4 1.6 1.3s-.7 1.7-1.6 1.9-1.6-.4-1.6-1.3.7-1.7 1.6-1.9z" fill="#fff"/><path d="m260.7 313c.9-.2 1.6.4 1.6 1.3s-.7 1.7-1.6 1.9-1.6-.4-1.6-1.3.7-1.7 1.6-1.9z" fill="#fff"/></svg>