<svg xmlns="http://www.w3.org/2000/svg" xmlns:xlink="http://www.w3.org/1999/xlink" viewBox="0 0 150 150"><defs><style>.cls-1{fill:url(#linear-gradient);}.cls-2{fill:#fff;}.cls-3{opacity:0.5;fill:url(#radial-gradient);}.cls-4{fill:none;stroke:#efefef;stroke-miterlimit:10;stroke-width:1.84px;}.cls-5{fill:url(#linear-gradient-2);}.cls-6{fill:url(#linear-gradient-3);}.cls-7{fill:url(#linear-gradient-4);}.cls-8{fill:url(#linear-gradient-5);}.cls-9{fill:url(#linear-gradient-6);}.cls-10{fill:#ffd900;}.cls-11{opacity:0.2;fill:url(#radial-gradient-2);}.cls-12{fill:url(#linear-gradient-7);}.cls-13{fill:url(#linear-gradient-8);}.cls-14{fill:url(#linear-gradient-9);}.cls-15{fill:url(#linear-gradient-10);}.cls-16{fill:url(#linear-gradient-11);}</style><linearGradient id="linear-gradient" x1="12.29" y1="75.03" x2="56.86" y2="75.03" gradientTransform="translate(14.87 -5.2) rotate(10.95)" gradientUnits="userSpaceOnUse"><stop offset="0" stop-color="#88939a"/><stop offset="0.05" stop-color="#858f96"/><stop offset="1" stop-color="#4d4f56"/></linearGradient><radialGradient id="radial-gradient" cx="1102.46" cy="855.35" r="63.46" gradientTransform="translate(-920.88 -686.41) scale(0.9 0.89)" gradientUnits="userSpaceOnUse"><stop offset="0" stop-color="#ff3d0b"/><stop offset="1" stop-color="#ff5c1a" stop-opacity="0"/></radialGradient><linearGradient id="linear-gradient-2" x1="633.74" y1="940.7" x2="633.74" y2="872.87" gradientTransform="translate(-553.3 -853.29)" gradientUnits="userSpaceOnUse"><stop offset="0" stop-color="#cfd8de"/><stop offset="1" stop-color="#f9fbfd"/></linearGradient><linearGradient id="linear-gradient-3" x1="634.12" y1="925.43" x2="634.12" y2="857.6" gradientTransform="translate(-556.22 -853.09)" xlink:href="#linear-gradient-2"/><linearGradient id="linear-gradient-4" x1="48.74" y1="41.87" x2="76.11" y2="41.87" gradientTransform="translate(9.13 -11.14) rotate(11)" xlink:href="#linear-gradient"/><linearGradient id="linear-gradient-5" x1="642.17" y1="959.35" x2="642.17" y2="891.52" gradientTransform="translate(-549.9 -855.24)" xlink:href="#linear-gradient-2"/><linearGradient id="linear-gradient-6" x1="638.49" y1="978" x2="638.49" y2="910.16" gradientTransform="translate(-546.27 -854.88)" xlink:href="#linear-gradient-2"/><radialGradient id="radial-gradient-2" cx="111.88" cy="19.75" r="44.47" gradientTransform="translate(15.82 -14.36) rotate(11)" xlink:href="#radial-gradient"/><linearGradient id="linear-gradient-7" x1="135.42" y1="-14.84" x2="109.31" y2="33.64" gradientTransform="translate(6.33 -21.51) rotate(10.95)" gradientUnits="userSpaceOnUse"><stop offset="0" stop-color="#fffc65"/><stop offset="1" stop-color="#ffba0b"/></linearGradient><linearGradient id="linear-gradient-8" x1="-8256.87" y1="3875.08" x2="-8275.75" y2="3875.08" gradientTransform="matrix(-0.83, 0.56, 0.56, 0.83, -8892.06, 1563.82)" xlink:href="#linear-gradient"/><linearGradient id="linear-gradient-9" x1="-8256.88" y1="3850.62" x2="-8275.77" y2="3850.62" gradientTransform="matrix(-0.83, 0.56, 0.56, 0.83, -8892.06, 1563.82)" xlink:href="#linear-gradient"/><linearGradient id="linear-gradient-10" x1="-8250.97" y1="3875.08" x2="-8272.16" y2="3875.08" gradientTransform="matrix(-0.83, 0.56, 0.56, 0.83, -8892.06, 1563.82)" xlink:href="#linear-gradient"/><linearGradient id="linear-gradient-11" x1="-8250.97" y1="3850.67" x2="-8272.18" y2="3850.67" gradientTransform="matrix(-0.83, 0.56, 0.56, 0.83, -8892.06, 1563.82)" xlink:href="#linear-gradient"/></defs><g id="design"><rect class="cls-1" x="14.76" y="55.21" width="39.63" height="39.63" rx="5.43" transform="translate(-13.62 7.93) rotate(-10.95)"/><path class="cls-2" d="M38.39,80.7l-1.71-3.23-5.25,1-.38,3.63-3.29.63,2.29-15.44,3.73-.72,7.89,13.47Zm-2.94-5.65c-1.56-2.91-2.44-4.57-2.64-5s-.35-.69-.45-.91c-.06.88-.27,3.08-.66,6.59Z"/><ellipse class="cls-3" cx="75.9" cy="73.27" rx="57.38" ry="56.36" transform="translate(-15.09 19.88) rotate(-13.59)"/><rect class="cls-2" x="43.35" y="23.76" width="78.32" height="102.45" rx="3.83" transform="translate(-12.79 17.11) rotate(-11)"/><rect class="cls-4" x="53.84" y="60.76" width="10.92" height="10.92" rx="1.11" transform="translate(-11.54 12.53) rotate(-11)"/><rect class="cls-5" x="70.58" y="59.84" width="19.73" height="4.55" rx="2.27" transform="matrix(0.98, -0.19, 0.19, 0.98, -10.37, 16.48)"/><rect class="cls-6" x="49.8" y="44.78" width="56.2" height="4.55" rx="2.27" transform="translate(-7.54 15.72) rotate(-11)"/><rect class="cls-7" x="48.53" y="39.6" width="27.79" height="4.55" rx="2.27" transform="matrix(0.98, -0.19, 0.19, 0.98, -6.84, 12.67)"/><rect class="cls-4" x="57.4" y="79.07" width="10.92" height="10.92" rx="1.11" transform="translate(-14.97 13.54) rotate(-11)"/><rect class="cls-8" x="73.98" y="76.54" width="36.6" height="4.55" rx="2.25" transform="translate(-13.34 19.05) rotate(-11)"/><rect class="cls-4" x="60.95" y="97.37" width="10.92" height="10.92" rx="1.11" transform="translate(-18.39 14.55) rotate(-11)"/><rect class="cls-9" x="77.6" y="95.55" width="29.22" height="4.55" rx="2.01" transform="translate(-16.96 19.38) rotate(-11)"/><path class="cls-10" d="M84.45,19.05,79.56,20a1.72,1.72,0,0,1-2-1.36h0a5.09,5.09,0,0,0-4.84-4.22,5,5,0,0,0-4.91,5.9l0,.21a1.72,1.72,0,0,1-1.36,2l-4.89.95a4.48,4.48,0,0,0-3.69,4.87A4.31,4.31,0,0,0,63,32l23.34-4.53a4.32,4.32,0,0,0,3.36-5.28A4.48,4.48,0,0,0,84.45,19.05Z"/><rect class="cls-11" x="43.35" y="23.76" width="78.32" height="102.45" rx="3.83" transform="translate(-12.79 17.11) rotate(-11)"/><rect class="cls-12" x="95.61" y="2.47" width="39.63" height="39.63" rx="5.43" transform="translate(-2.13 22.32) rotate(-10.95)"/><path class="cls-2" d="M122.09,19.92a9.22,9.22,0,0,1-.07,4.43,5.63,5.63,0,0,1-2.16,3l4.21,3.2-3.9.75-3.27-2.72-.22.05a6.74,6.74,0,0,1-5.46-.94,8,8,0,0,1-2.84-5.17,7.92,7.92,0,0,1,.72-5.84,6.79,6.79,0,0,1,4.73-2.88,6.64,6.64,0,0,1,5.44.93A8,8,0,0,1,122.09,19.92Zm-10.5,2a6.06,6.06,0,0,0,1.62,3.45,3.26,3.26,0,0,0,3,.7c2.44-.48,3.34-2.33,2.71-5.57s-2.15-4.63-4.57-4.16a3.3,3.3,0,0,0-2.51,1.76A6.11,6.11,0,0,0,111.59,22Z"/><path class="cls-13" d="M118.51,150l14.38-9.75-2-2.94a2.56,2.56,0,0,0-3.55-.69l-10.16,6.89a2.56,2.56,0,0,0-.68,3.55Z"/><path class="cls-14" d="M103.91,136.23,115.68,142l10.83-7.35-.94-13.08-24.52-16.14,11.84,17.53a3.46,3.46,0,1,1-2.66,1.81l-11.9-17.62Z"/><path class="cls-15" d="M122.35,140l5-3.4a2.56,2.56,0,0,1,3.55.69l2,2.94-7.12,4.83Z"/><path class="cls-16" d="M115.11,129.29l.09,0a3.46,3.46,0,0,0-2.31-6.3l-11.84-17.53,24.52,16.14.94,13.08-5.35,3.63Z"/></g></svg>