<svg viewBox="0 0 200 200" xmlns="http://www.w3.org/2000/svg"><path d="m159.29 58.09v112.8a5.1 5.1 0 0 1 -5.11 5.11h-108.07a5.1 5.1 0 0 1 -5.11-5.11v-145.78a5.1 5.1 0 0 1 5.11-5.11h73.75z" fill="#2979e9"/><path d="m159.29 58.09v1.34h-38.57a2.65 2.65 0 0 1 -2.65-2.65v-36.78h1.79z" fill="#092d60"/><path d="m77.07 79.06h48.12a4.83 4.83 0 0 1 4.81 4.81v48.13a4.83 4.83 0 0 1 -4.81 4.81h-48.12a4.83 4.83 0 0 1 -4.81-4.81v-48.13a4.83 4.83 0 0 1 4.81-4.81z" fill="#2c59b6"/><path d="m115.39 126h-6.5l-7.58-24.9-7.94 24.9h-6.5l-7.21-36.11h6.49l5.06 25.26 7.57-24.54h5.42l7.22 24.54 5-25.26h6.13z" fill="#fff"/></svg>